<?xml version="1.0" encoding="utf-8"?>
<svg version="1.1" xmlns:xlink="http://www.w3.org/1999/xlink" width="18px" height="19px" preserveAspectRatio="xMidYMin meet" viewBox="956 422  16 19" xmlns="http://www.w3.org/2000/svg">
  <path d="M 851.5 354  L 851.5 378.75  A 5 5 0 0 0 856.5 384.25 L 959 384.25  A 5 5 0 0 1 964.5 389.25 L 964.5 430  " stroke-width="1" stroke="#ff9900" fill="none" />
  <path d="M 851.5 353  A 3 3 0 0 0 848.5 356 A 3 3 0 0 0 851.5 359 A 3 3 0 0 0 854.5 356 A 3 3 0 0 0 851.5 353 Z M 958.2 429  L 964.5 435  L 970.8 429  L 958.2 429  Z " fill-rule="nonzero" fill="#ff9900" stroke="none" />
</svg>