<?xml version="1.0" encoding="utf-8"?>
<svg version="1.1" xmlns:xlink="http://www.w3.org/1999/xlink" width="18px" height="19px" preserveAspectRatio="xMidYMin meet" viewBox="440 396  16 19" xmlns="http://www.w3.org/2000/svg">
  <path d="M 519.5 354  L 519.5 376.25  A 5 5 0 0 1 514.5 381.75 L 453 381.75  A 5 5 0 0 0 448.5 386.75 L 448.5 404  " stroke-width="1" stroke="#ff9900" fill="none" />
  <path d="M 519.5 353  A 3 3 0 0 0 516.5 356 A 3 3 0 0 0 519.5 359 A 3 3 0 0 0 522.5 356 A 3 3 0 0 0 519.5 353 Z M 442.2 403  L 448.5 409  L 454.8 403  L 442.2 403  Z " fill-rule="nonzero" fill="#ff9900" stroke="none" />
</svg>