<?xml version="1.0" encoding="utf-8"?>
<svg version="1.1" xmlns:xlink="http://www.w3.org/1999/xlink" width="197px" height="10px" preserveAspectRatio="xMinYMid meet" viewBox="659 266  197 8" xmlns="http://www.w3.org/2000/svg">
  <path d="M 664.5 232  L 664.5 265  A 5 5 0 0 0 669.5 270.5 L 846 270.5  A 5 5 0 0 1 851.5 275.5 L 851.5 302  " stroke-width="1" stroke="#ff9900" fill="none" />
  <path d="M 664.5 231  A 3 3 0 0 0 661.5 234 A 3 3 0 0 0 664.5 237 A 3 3 0 0 0 667.5 234 A 3 3 0 0 0 664.5 231 Z M 845.2 301  L 851.5 307  L 857.8 301  L 845.2 301  Z " fill-rule="nonzero" fill="#ff9900" stroke="none" />
</svg>