<?xml version="1.0" encoding="utf-8"?>
<svg version="1.1" xmlns:xlink="http://www.w3.org/1999/xlink" width="10px" height="43.25px" preserveAspectRatio="xMidYMin meet" viewBox="515 263.75  8 43.25" xmlns="http://www.w3.org/2000/svg">
  <path d="M 664.5 232  L 664.5 263.75  A 5 5 0 0 1 659.5 269.25 L 524 269.25  A 5 5 0 0 0 519.5 274.25 L 519.5 302  " stroke-width="1" stroke="#ff9900" fill="none" />
  <path d="M 664.5 231  A 3 3 0 0 0 661.5 234 A 3 3 0 0 0 664.5 237 A 3 3 0 0 0 667.5 234 A 3 3 0 0 0 664.5 231 Z M 513.2 301  L 519.5 307  L 525.8 301  L 513.2 301  Z " fill-rule="nonzero" fill="#ff9900" stroke="none" />
</svg>