<?xml version="1.0" encoding="utf-8"?>
<svg version="1.1" xmlns:xlink="http://www.w3.org/1999/xlink" width="104px" height="10px" preserveAspectRatio="xMinYMid meet" viewBox="865 523.5  104 8" xmlns="http://www.w3.org/2000/svg">
  <path d="M 964.5 482  L 964.5 522.5  A 5 5 0 0 1 959.5 528 L 875 528  A 5 5 0 0 0 870.5 533 L 870.5 566  " stroke-width="1" stroke="#ff9900" fill="none" />
  <path d="M 964.5 481  A 3 3 0 0 0 961.5 484 A 3 3 0 0 0 964.5 487 A 3 3 0 0 0 967.5 484 A 3 3 0 0 0 964.5 481 Z M 864.2 565  L 870.5 571  L 876.8 565  L 864.2 565  Z " fill-rule="nonzero" fill="#ff9900" stroke="none" />
</svg>