<?xml version="1.0" encoding="utf-8"?>
<svg version="1.1" xmlns:xlink="http://www.w3.org/1999/xlink" width="10px" height="37px" preserveAspectRatio="xMidYMin meet" viewBox="847 353  8 37" xmlns="http://www.w3.org/2000/svg">
  <path d="M 851.5 354  L 851.5 380  A 5 5 0 0 0 856 385.5 L 961 385.5  A 3 3 0 0 1 964 382.5 A 3 3 0 0 1 967 385.5 L 1185 385.5  A 5 5 0 0 1 1190.5 390.5 L 1190.5 430  " stroke-width="1" stroke="#ff9900" fill="none" />
  <path d="M 851.5 353  A 3 3 0 0 0 848.5 356 A 3 3 0 0 0 851.5 359 A 3 3 0 0 0 854.5 356 A 3 3 0 0 0 851.5 353 Z M 1184.2 429  L 1190.5 435  L 1196.8 429  L 1184.2 429  Z " fill-rule="nonzero" fill="#ff9900" stroke="none" />
</svg>