<?xml version="1.0" encoding="utf-8"?>
<svg version="1.1" xmlns:xlink="http://www.w3.org/1999/xlink" width="158px" height="10px" preserveAspectRatio="xMinYMid meet" viewBox="1692 1006.5  158 8" xmlns="http://www.w3.org/2000/svg">
  <path d="M 1697.5 975  L 1697.5 1005.5  A 5 5 0 0 0 1702.5 1011 L 1840 1011  A 5 5 0 0 1 1845.5 1016 L 1845.5 1085  " stroke-width="1" stroke="#3399cc" fill="none" />
  <path d="M 1697.5 974  A 3 3 0 0 0 1694.5 977 A 3 3 0 0 0 1697.5 980 A 3 3 0 0 0 1700.5 977 A 3 3 0 0 0 1697.5 974 Z M 1839.2 1084  L 1845.5 1090  L 1851.8 1084  L 1839.2 1084  Z " fill-rule="nonzero" fill="#3399cc" stroke="none" />
</svg>