<?xml version="1.0" encoding="utf-8"?>
<svg version="1.1" xmlns:xlink="http://www.w3.org/1999/xlink" width="52px" height="10px" preserveAspectRatio="xMinYMid meet" viewBox="1253 2446  52 8" xmlns="http://www.w3.org/2000/svg">
  <path d="M 1300.5 2357  L 1300.5 2445  A 5 5 0 0 1 1295.5 2450.5 L 1263 2450.5  A 5 5 0 0 0 1258.5 2455.5 L 1258.5 2464  " stroke-width="1" stroke="#ff9900" fill="none" />
  <path d="M 1300.5 2356  A 3 3 0 0 0 1297.5 2359 A 3 3 0 0 0 1300.5 2362 A 3 3 0 0 0 1303.5 2359 A 3 3 0 0 0 1300.5 2356 Z M 1252.2 2463  L 1258.5 2469  L 1264.8 2463  L 1252.2 2463  Z " fill-rule="nonzero" fill="#ff9900" stroke="none" />
</svg>