<?xml version="1.0" encoding="utf-8"?>
<svg version="1.1" xmlns:xlink="http://www.w3.org/1999/xlink" width="18px" height="18px" preserveAspectRatio="xMinYMid meet" viewBox="1911 2338  18 16" xmlns="http://www.w3.org/2000/svg">
  <path d="M 1920.5 2344  L 1920.5 2455  A 5 5 0 0 0 1925.5 2460.5 L 3015 2460.5  A 5 5 0 0 1 3020.5 2465.5 L 3020.5 2474  " stroke-width="1" stroke="#ff9900" fill="none" />
  <path d="M 1920.5 2343  A 3 3 0 0 0 1917.5 2346 A 3 3 0 0 0 1920.5 2349 A 3 3 0 0 0 1923.5 2346 A 3 3 0 0 0 1920.5 2343 Z M 3014.2 2473  L 3020.5 2479  L 3026.8 2473  L 3014.2 2473  Z " fill-rule="nonzero" fill="#ff9900" stroke="none" />
</svg>