<?xml version="1.0" encoding="utf-8"?>
<svg version="1.1" xmlns:xlink="http://www.w3.org/1999/xlink" width="18px" height="19px" preserveAspectRatio="xMidYMin meet" viewBox="2763 1852  16 19" xmlns="http://www.w3.org/2000/svg">
  <path d="M 3915.5 2209  L 3915.5 2151  A 5 5 0 0 0 3910.5 2146.5 L 2882 2146.5  A 5 5 0 0 1 2877.5 2141.5 L 2877.5 1863.8  A 5 5 0 0 0 2872.5 1859.3 L 2771.4 1859.3  A 0.400000000000091 0.400000000000091 0 0 1 2771.5 1858.9 " stroke-width="1" stroke="#ff9900" fill="none" />
  <path d="M 3915.5 2204  A 3 3 0 0 0 3912.5 2207 A 3 3 0 0 0 3915.5 2210 A 3 3 0 0 0 3918.5 2207 A 3 3 0 0 0 3915.5 2204 Z M 2777.8 1864  L 2771.5 1858  L 2765.2 1864  L 2777.8 1864  Z " fill-rule="nonzero" fill="#ff9900" stroke="none" />
</svg>