<?xml version="1.0" encoding="utf-8"?>
<svg version="1.1" xmlns:xlink="http://www.w3.org/1999/xlink" width="10px" height="298px" preserveAspectRatio="xMidYMin meet" viewBox="2873 1853  8 298" xmlns="http://www.w3.org/2000/svg">
  <path d="M 3098.5 2216  L 3098.5 2151  A 5 5 0 0 0 3093.5 2146.5 L 2882 2146.5  A 5 5 0 0 1 2877.5 2141.5 L 2877.5 1863  A 5 5 0 0 0 2872.5 1858.5 L 2776 1858.5  " stroke-width="1" stroke="#ff9900" fill="none" />
  <path d="M 3098.5 2211  A 3 3 0 0 0 3095.5 2214 A 3 3 0 0 0 3098.5 2217 A 3 3 0 0 0 3101.5 2214 A 3 3 0 0 0 3098.5 2211 Z M 2777 1852.2  L 2771 1858.5  L 2777 1864.8  L 2777 1852.2  Z " fill-rule="nonzero" fill="#ff9900" stroke="none" />
</svg>