<?xml version="1.0" encoding="utf-8"?>
<svg version="1.1" xmlns:xlink="http://www.w3.org/1999/xlink" width="10px" height="295.5px" preserveAspectRatio="xMidYMin meet" viewBox="4490.47727272727 2489.5  8 295.5" xmlns="http://www.w3.org/2000/svg">
  <path d="M 4388.5 2495  L 4489.47727272727 2495  A 5 5 0 0 1 4494.97727272727 2500 L 4494.97727272727 2775  A 5 5 0 0 0 4499.97727272727 2780.5 L 4579 2780.5  " stroke-width="1" stroke="#ff9900" fill="none" />
  <path d="M 4390.7146018366 2492  A 3 3 0 0 0 4387.7146018366 2495 A 3 3 0 0 0 4390.7146018366 2498 A 3 3 0 0 0 4393.7146018366 2495 A 3 3 0 0 0 4390.7146018366 2492 Z M 4578 2786.8  L 4584 2780.5  L 4578 2774.2  L 4578 2786.8  Z " fill-rule="nonzero" fill="#ff9900" stroke="none" />
</svg>