<?xml version="1.0" encoding="utf-8"?>
<svg version="1.1" xmlns:xlink="http://www.w3.org/1999/xlink" width="18px" height="19px" preserveAspectRatio="xMidYMin meet" viewBox="4210 2412  16 19" xmlns="http://www.w3.org/2000/svg">
  <path d="M 4054.5 2344  L 4054.5 2383.46153846154  A 5 5 0 0 0 4059.5 2388.96153846154 L 4213 2388.96153846154  A 5 5 0 0 1 4218.5 2393.96153846154 L 4218.5 2420  " stroke-width="1" stroke="#ff9900" fill="none" />
  <path d="M 4054.5 2343  A 3 3 0 0 0 4051.5 2346 A 3 3 0 0 0 4054.5 2349 A 3 3 0 0 0 4057.5 2346 A 3 3 0 0 0 4054.5 2343 Z M 4212.2 2419  L 4218.5 2425  L 4224.8 2419  L 4212.2 2419  Z " fill-rule="nonzero" fill="#ff9900" stroke="none" />
</svg>