<?xml version="1.0" encoding="utf-8"?>
<svg version="1.1" xmlns:xlink="http://www.w3.org/1999/xlink" width="18px" height="18px" preserveAspectRatio="xMinYMid meet" viewBox="4155 2219  18 16" xmlns="http://www.w3.org/2000/svg">
  <path d="M 4162 2227.5  L 4166 2227.5  A 5 5 0 0 0 4171.5 2222.5 L 4171.5 2199  A 5 5 0 0 1 4176.5 2194.5 L 4432 2194.5  A 5 5 0 0 0 4437.5 2189.5 L 4437.5 2166  " stroke-width="1" stroke="#ff9900" fill="none" />
  <path d="M 4164 2224.5  A 3 3 0 0 0 4161 2227.5 A 3 3 0 0 0 4164 2230.5 A 3 3 0 0 0 4167 2227.5 A 3 3 0 0 0 4164 2224.5 Z M 4443.8 2167  L 4437.5 2161  L 4431.2 2167  L 4443.8 2167  Z " fill-rule="nonzero" fill="#ff9900" stroke="none" />
</svg>