<?xml version="1.0" encoding="utf-8"?>
<svg version="1.1" xmlns:xlink="http://www.w3.org/1999/xlink" width="10px" height="35.3846153846157px" preserveAspectRatio="xMidYMin meet" viewBox="4275 2189.61538461538  8 35.3846153846157" xmlns="http://www.w3.org/2000/svg">
  <path d="M 4279.5 2224  L 4279.5 2199.61538461538  A 5 5 0 0 1 4284.5 2195.11538461538 L 5194 2195.11538461538  A 5 5 0 0 0 5199.5 2190.11538461538 L 5199.5 2166  " stroke-width="1" stroke="#ff9900" fill="none" />
  <path d="M 4279.5 2219  A 3 3 0 0 0 4276.5 2222 A 3 3 0 0 0 4279.5 2225 A 3 3 0 0 0 4282.5 2222 A 3 3 0 0 0 4279.5 2219 Z M 5205.8 2167  L 5199.5 2161  L 5193.2 2167  L 5205.8 2167  Z " fill-rule="nonzero" fill="#ff9900" stroke="none" />
</svg>