<?xml version="1.0" encoding="utf-8"?>
<svg version="1.1" xmlns:xlink="http://www.w3.org/1999/xlink" width="104.25px" height="10px" preserveAspectRatio="xMinYMid meet" viewBox="1542 2839  104.25 8" xmlns="http://www.w3.org/2000/svg">
  <path d="M 1548 2843.5  L 1636.25 2843.5  A 5 5 0 0 1 1641.75 2848.5 L 1641.75 2975  A 5 5 0 0 0 1646.75 2980.5 L 1671 2980.5  " stroke-width="1" stroke="#ff9900" fill="none" />
  <path d="M 1550 2840.5  A 3 3 0 0 0 1547 2843.5 A 3 3 0 0 0 1550 2846.5 A 3 3 0 0 0 1553 2843.5 A 3 3 0 0 0 1550 2840.5 Z M 1670 2986.8  L 1676 2980.5  L 1670 2974.2  L 1670 2986.8  Z " fill-rule="nonzero" fill="#ff9900" stroke="none" />
</svg>