<?xml version="1.0" encoding="utf-8"?>
<svg version="1.1" xmlns:xlink="http://www.w3.org/1999/xlink" width="10px" height="857px" preserveAspectRatio="xMidYMin meet" viewBox="4443 2340  8 857" xmlns="http://www.w3.org/2000/svg">
  <path d="M 4447.5 2341  L 4447.5 2491.5  A 3 3 0 0 1 4450.5 2494.5 A 3 3 0 0 1 4447.5 2497.5 L 4447.5 3187  A 5 5 0 0 0 4452.5 3192.5 L 4837 3192.5  A 5 5 0 0 1 4842.5 3197.5 L 4842.5 3241  " stroke-width="1" stroke="#ff9900" fill="none" />
  <path d="M 4447.5 2340  A 3 3 0 0 0 4444.5 2343 A 3 3 0 0 0 4447.5 2346 A 3 3 0 0 0 4450.5 2343 A 3 3 0 0 0 4447.5 2340 Z M 4836.2 3240  L 4842.5 3246  L 4848.8 3240  L 4836.2 3240  Z " fill-rule="nonzero" fill="#ff9900" stroke="none" />
</svg>