<?xml version="1.0" encoding="utf-8"?>
<svg version="1.1" xmlns:xlink="http://www.w3.org/1999/xlink" width="117px" height="10px" preserveAspectRatio="xMinYMid meet" viewBox="311 2357.25  117 8" xmlns="http://www.w3.org/2000/svg">
  <path d="M 316.5 2296  L 316.5 2356.25  A 5 5 0 0 0 321.5 2361.75 L 418 2361.75  A 5 5 0 0 1 423.5 2366.75 L 423.5 2385  " stroke-width="1" stroke="#ff9900" fill="none" />
  <path d="M 316.5 2295  A 3 3 0 0 0 313.5 2298 A 3 3 0 0 0 316.5 2301 A 3 3 0 0 0 319.5 2298 A 3 3 0 0 0 316.5 2295 Z M 417.2 2384  L 423.5 2390  L 429.8 2384  L 417.2 2384  Z " fill-rule="nonzero" fill="#ff9900" stroke="none" />
</svg>