<?xml version="1.0" encoding="utf-8"?>
<svg version="1.1" xmlns:xlink="http://www.w3.org/1999/xlink" width="10px" height="39px" preserveAspectRatio="xMidYMin meet" viewBox="547 2296  8 39" xmlns="http://www.w3.org/2000/svg">
  <path d="M 551.5 2297  L 551.5 2325  A 5 5 0 0 0 556.5 2330.5 L 622 2330.5  A 5 5 0 0 1 627.5 2335.5 L 627.5 2354  " stroke-width="1" stroke="#ff9900" fill="none" />
  <path d="M 551.5 2296  A 3 3 0 0 0 548.5 2299 A 3 3 0 0 0 551.5 2302 A 3 3 0 0 0 554.5 2299 A 3 3 0 0 0 551.5 2296 Z M 621.2 2353  L 627.5 2359  L 633.8 2353  L 621.2 2353  Z " fill-rule="nonzero" fill="#ff9900" stroke="none" />
</svg>