<?xml version="1.0" encoding="utf-8"?>
<svg version="1.1" xmlns:xlink="http://www.w3.org/1999/xlink" width="94.25px" height="10px" preserveAspectRatio="xMinYMid meet" viewBox="3291.78496503497 2830  94.25 8" xmlns="http://www.w3.org/2000/svg">
  <path d="M 3190.34615384615 2548.84615384615  L 3291.78496503497 2548.84615384615  A 5 5 0 0 1 3297.28496503497 2553.84615384615 L 3297.28496503497 2829  A 5 5 0 0 0 3302.28496503497 2834.5 L 3381 2834.5  " stroke-width="1" stroke="#ff9900" fill="none" />
  <path d="M 3192.80241665611 2545.84615384615  A 3 3 0 0 0 3189.80241665611 2548.84615384615 A 3 3 0 0 0 3192.80241665611 2551.84615384615 A 3 3 0 0 0 3195.80241665611 2548.84615384615 A 3 3 0 0 0 3192.80241665611 2545.84615384615 Z M 3380 2840.8  L 3386 2834.5  L 3380 2828.2  L 3380 2840.8  Z " fill-rule="nonzero" fill="#ff9900" stroke="none" />
</svg>