<?xml version="1.0" encoding="utf-8"?>
<svg version="1.1" xmlns:xlink="http://www.w3.org/1999/xlink" width="82px" height="31px" xmlns="http://www.w3.org/2000/svg">
  <g transform="matrix(1 0 0 1 -444 -122 )">
    <path d="M 80.5 27  L 80.5 3  C 80.2636363636364 1.6  78.6436363636364 0.5  76.5818181818182 0.5  L 0 0.5  L 0 29.5  L 76.5818181818182 29.5  C 78.6436363636364 29.5  80.2636363636364 28.4  80.5 27  Z " fill-rule="nonzero" fill="#ffffff" stroke="none" transform="matrix(1 0 0 1 444 122 )" />
    <path d="M 0 29.5  L 76.5818181818182 29.5  C 78.6436363636364 29.5  80.2636363636364 28.4  80.5 27  L 80.5 3  C 80.2636363636364 1.6  78.6436363636364 0.5  76.5818181818182 0.5  L 0 0.5  " stroke-width="1" stroke="#adb0c1" fill="none" transform="matrix(1 0 0 1 444 122 )" />
  </g>
</svg>