<?xml version="1.0" encoding="utf-8"?>
<svg version="1.1" xmlns:xlink="http://www.w3.org/1999/xlink" width="32px" height="26px" xmlns="http://www.w3.org/2000/svg">
  <g transform="matrix(1 0 0 1 -62 -166 )">
    <path d="M 8.36682926829264 10  L 3.32487804878037 10  L 13.049756097561 20.3906250000001  L 8.36682926829264 10  Z M 10.5521951219512 10  L 16 22.0624999999999  L 21.4478048780488 10  L 10.5521951219512 10  Z M 3.01268292682915 8.00000000000013  L 8.41365853658528 8.00000000000013  L 11.5980487804877 1.99999999999989  L 7.50829268292669 1.99999999999989  L 3.01268292682915 8.00000000000013  Z M 23.6331707317074 10  L 18.950243902439 20.3906250000001  L 28.6751219512196 10  L 23.6331707317074 10  Z M 13.8614634146341 1.99999999999989  L 10.6770731707316 8  L 21.3229268292684 8  L 18.1385365853659 1.99999999999989  L 13.8614634146341 1.99999999999989  Z M 20.4019512195123 1.99999999999989  L 23.6331707317074 8.40625000000013  L 28.9873170731709 8.00000000000013  L 24.4917073170733 1.99999999999989  L 20.4019512195123 1.99999999999989  Z M 24.9912195121951 0  C 25.3346341463414 0  25.6 0.135416666666667  25.7873170731709 0.40625  L 31.7814634146341 8.40625000000013  C 31.9271544715448 8.59374999999993  31.9947967479675 8.80989583333329  31.9843902439025 9.05468749999991  C 31.9739837398374 9.29947916666654  31.8855284552847 9.51041666666677  31.7190243902439 9.68750000000007  L 16.7336585365853 25.6875  C 16.5463414634147 25.8958333333334  16.3017886178862 26  16 26  C 15.6982113821138 26  15.4536585365853 25.8958333333334  15.2663414634147 25.6875  L 0.280975609756133 9.68750000000007  C 0.114471544715343 9.51041666666677  0.026016260162578 9.29947916666654  0.0156097560975468 9.05468749999991  C 0.00520325203251559 8.80989583333329  0.0728455284552183 8.59374999999993  0.218536585365946 8.40625000000013  L 6.21268292682915 0.40625  C 6.4 0.135416666666667  6.66536585365859 0  7.00878048780491 0  L 24.9912195121951 0  Z " fill-rule="nonzero" fill="#797979" stroke="none" transform="matrix(1 0 0 1 62 166 )" />
  </g>
</svg>