<?xml version="1.0" encoding="utf-8"?>
<svg version="1.1" xmlns:xlink="http://www.w3.org/1999/xlink" width="19px" height="17px" xmlns="http://www.w3.org/2000/svg">
  <g transform="matrix(1 0 0 1 -148 -162 )">
    <path d="M 11.4753605769231 8.28971354166667  C 11.6199919871795 8.14952256944444  11.6923076923077 7.98350694444444  11.6923076923077 7.79166666666667  C 11.6923076923077 7.59982638888889  11.6199919871795 7.43381076388889  11.4753605769231 7.29361979166667  C 11.3307291666667 7.15342881944444  11.1594551282051 7.08333333333333  10.9615384615385 7.08333333333333  L 8.03846153846154 7.08333333333333  C 7.84054487179487 7.08333333333333  7.66927083333333 7.15342881944444  7.52463942307692 7.29361979166667  C 7.38000801282051 7.43381076388889  7.30769230769231 7.59982638888889  7.30769230769231 7.79166666666667  C 7.30769230769231 7.98350694444444  7.38000801282051 8.14952256944444  7.52463942307692 8.28971354166667  C 7.66927083333333 8.42990451388889  7.84054487179487 8.5  8.03846153846154 8.5  L 10.9615384615385 8.5  C 11.1594551282051 8.5  11.3307291666667 8.42990451388889  11.4753605769231 8.28971354166667  Z M 18.0522836538462 5.16861979166667  C 18.1969150641026 5.30881076388889  18.2692307692308 5.47482638888889  18 5.66666666666667  L 18 16.2916666666667  C 18.2692307692308 16.4835069444444  18.1969150641026 16.6495225694444  18.0522836538462 16.7897135416667  C 17.9076522435897 16.9299045138889  17.7363782051282 17  17.5384615384615 17  L 1.46153846153846 17  C 1.2636217948718 17  1.09234775641026 16.9299045138889  0.947716346153846 16.7897135416667  C 0.803084935897436 16.6495225694444  0.730769230769231 16.4835069444444  1 16.2916666666667  L 1 5.66666666666667  C 0.730769230769231 5.47482638888889  0.803084935897436 5.30881076388889  0.947716346153846 5.16861979166667  C 1.09234775641026 5.02842881944444  1.2636217948718 4.95833333333333  1.46153846153846 5  L 17.5384615384615 5  C 17.7363782051282 4.95833333333333  17.9076522435897 5.02842881944444  18.0522836538462 5.16861979166667  Z M 18.7830528846154 0.210286458333333  C 18.9276842948718 0.350477430555553  19 0.516493055555553  19 0.708333333333333  L 19 3.54166666666667  C 19 3.73350694444444  18.9276842948718 3.89952256944444  18.7830528846154 4.03971354166667  C 18.638421474359 4.17990451388889  18.4671474358974 4.25  18.2692307692308 4.25  L 0.730769230769231 4.25  C 0.532852564102564 4.25  0.361578525641026 4.17990451388889  0.216947115384615 4.03971354166667  C 0.0723157051282052 3.89952256944444  0 3.73350694444444  0 3.54166666666667  L 0 0.708333333333333  C 0 0.516493055555553  0.0723157051282052 0.350477430555553  0.216947115384615 0.210286458333333  C 0.361578525641026 0.0700954861111103  0.532852564102564 0  0.730769230769231 0  L 18.2692307692308 0  C 18.4671474358974 0  18.638421474359 0.0700954861111103  18.7830528846154 0.210286458333333  Z " fill-rule="nonzero" fill="#aeaeae" stroke="none" transform="matrix(1 0 0 1 148 162 )" />
  </g>
</svg>