<?xml version="1.0" encoding="utf-8"?>
<svg version="1.1" xmlns:xlink="http://www.w3.org/1999/xlink" width="18px" height="19px" preserveAspectRatio="xMidYMin meet" viewBox="399 105  16 19" xmlns="http://www.w3.org/2000/svg">
  <path d="M 408.025255843687 112.282943678289  A 0.8461538461533 0.8461538461533 0 0 0 408.346153846153 112.346153846153 L 509.246503496504 112.346153846153  A 5 5 0 0 1 514.746503496504 117.346153846153 L 514.746503496504 392  A 5 5 0 0 0 519.746503496504 397.5 L 598 397.5  " stroke-width="1" stroke="#ff9900" fill="none" />
  <path d="M 409.517018492712 109.346153846153  A 3 3 0 0 0 406.517018492712 112.346153846153 A 3 3 0 0 0 409.517018492712 115.346153846153 A 3 3 0 0 0 412.517018492712 112.346153846153 A 3 3 0 0 0 409.517018492712 109.346153846153 Z M 597 403.8  L 603 397.5  L 597 391.2  L 597 403.8  Z " fill-rule="nonzero" fill="#ff9900" stroke="none" />
</svg>