<?xml version="1.0" encoding="utf-8"?>
<svg version="1.1" xmlns:xlink="http://www.w3.org/1999/xlink" width="17px" height="19px" xmlns="http://www.w3.org/2000/svg">
  <g transform="matrix(1 0 0 1 -849 -427 )">
    <path d="M 3.09090909090909 13.8181818181818  L 4.63636363636364 13.8181818181818  L 4.63636363636364 15.5454545454545  L 3.09090909090909 15.5454545454545  L 3.09090909090909 13.8181818181818  Z M 3.09090909090909 3.45454545454545  L 4.63636363636364 3.45454545454545  L 4.63636363636364 5.18181818181818  L 3.09090909090909 5.18181818181818  L 3.09090909090909 3.45454545454545  Z M 12.3636363636364 3.45454545454545  L 13.9090909090909 3.45454545454545  L 13.9090909090909 5.18181818181818  L 12.3636363636364 5.18181818181818  L 12.3636363636364 3.45454545454545  Z M 1.54545454545455 12.0909090909091  L 1.54545454545455 17.2592329545455  L 6.18181818181818 17.2592329545455  L 6.18181818181818 12.0909090909091  L 1.54545454545455 12.0909090909091  Z M 1.54545454545455 1.72727272727273  L 1.54545454545455 6.90909090909091  L 6.18181818181818 6.90909090909091  L 6.18181818181818 1.72727272727273  L 1.54545454545455 1.72727272727273  Z M 10.8181818181818 1.72727272727273  L 10.8181818181818 6.90909090909091  L 15.4545454545455 6.90909090909091  L 15.4545454545455 1.72727272727273  L 10.8181818181818 1.72727272727273  Z M 0 10.3636363636364  L 7.72727272727273 10.3636363636364  L 7.72727272727273 19  L 0 19  L 0 10.3636363636364  Z M 12.3636363636364 17.2727272727273  L 13.9090909090909 17.2727272727273  L 13.9090909090909 19  L 12.3636363636364 19  L 12.3636363636364 17.2727272727273  Z M 15.4545454545455 17.2727272727273  L 17 17.2727272727273  L 17 19  L 15.4545454545455 19  L 15.4545454545455 17.2727272727273  Z M 15.4545454545455 10.3636363636364  L 17 10.3636363636364  L 17 15.5454545454545  L 12.3636363636364 15.5454545454545  L 12.3636363636364 13.8181818181818  L 10.8181818181818 13.8181818181818  L 10.8181818181818 19  L 9.27272727272727 19  L 9.27272727272727 10.3636363636364  L 13.9090909090909 10.3636363636364  L 13.9090909090909 12.0909090909091  L 15.4545454545455 12.0909090909091  L 15.4545454545455 10.3636363636364  Z M 0 0  L 7.72727272727273 0  L 7.72727272727273 8.63636363636364  L 0 8.63636363636364  L 0 0  Z M 9.27272727272727 0  L 17 0  L 17 8.63636363636364  L 9.27272727272727 8.63636363636364  L 9.27272727272727 0  Z " fill-rule="nonzero" fill="#ffffff" stroke="none" transform="matrix(1 0 0 1 849 427 )" />
  </g>
</svg>