<?xml version="1.0" encoding="utf-8"?>
<svg version="1.1" xmlns:xlink="http://www.w3.org/1999/xlink" width="14px" height="14px" xmlns="http://www.w3.org/2000/svg">
  <g transform="matrix(1 0 0 1 -1312 -258 )">
    <path d="M 13.685546875 8.24788549121666  C 13.7432725694443 8.30557362828017  13.7721354166667 8.37388852743442  13.7721354166667 8.45283018867923  C 13.7721354166667 8.48319236608108  13.7690972222222 8.50444589026239  13.7630208333333 8.51659076122314  C 13.3741319444443 10.1440034699631  12.5598958333333 11.4632400780742  11.3203125 12.4743005855563  C 10.0807291666667 13.4853610930384  8.62847222222217 13.9908913467794  6.96354166666674 13.9908913467794  C 6.07638888888891 13.9908913467794  5.21809895833326 13.8238993710692  4.388671875 13.4899154196486  C 3.55924479166674 13.1559314682282  2.81944444444434 12.6792452830189  2.16927083333326 12.0598568640208  L 0.993489583333258 13.234873129473  C 0.878038194444343 13.3502494036001  0.741319444444343 13.4079375406636  0.583333333333258 13.4079375406636  C 0.425347222222172 13.4079375406636  0.288628472222172 13.3502494036001  0.173177083333258 13.234873129473  C 0.0577256944443434 13.1194968553459  0 12.9828670570375  0 12.8249837345478  L 0 8.74430709173714  C 0 8.58642376924746  0.0577256944443434 8.44979397093908  0.173177083333258 8.33441769681195  C 0.288628472222172 8.21904142268488  0.425347222222172 8.16135328562132  0.583333333333258 8.16135328562132  L 4.66666666666674 8.16135328562132  C 4.82465277777783 8.16135328562132  4.96137152777783 8.21904142268488  5.07682291666674 8.33441769681195  C 5.19227430555566 8.44979397093908  5.25 8.58642376924746  5.25 8.74430709173714  C 5.25 8.90219041422682  5.19227430555566 9.03882021253526  5.07682291666674 9.15419648666233  L 3.828125 10.402081977879  C 4.25954861111109 10.8028627195836  4.74869791666674 11.1125569290826  5.29557291666674 11.331164606376  C 5.84244791666674 11.5497722836695  6.41059027777783 11.6590761223162  7 11.6590761223162  C 7.81423611111109 11.6590761223162  8.57378472222217 11.4617219692041  9.27864583333326 11.0670136629798  C 9.98350694444434 10.6723053567556  10.5486111111111 10.1288223812622  10.9739583333333 9.43656473649969  C 11.0407986111111 9.33333333333331  11.2018229166667 8.97809585773149  11.45703125 8.37085230969421  C 11.5056423611111 8.23118629364564  11.5967881944443 8.16135328562132  11.73046875 8.16135328562132  L 13.48046875 8.16135328562132  C 13.5594618055557 8.16135328562132  13.6278211805557 8.1901973541531  13.685546875 8.24788549121666  Z M 13.8268229166667 0.756018217306462  C 13.9422743055557 0.871394491433534  14 1.00802428974191  14 1.16590761223159  L 14 5.24658425504231  C 14 5.40446757753199  13.9422743055557 5.54109737584037  13.8268229166667 5.6564736499675  C 13.7113715277778 5.77184992409457  13.5746527777778 5.82953806115808  13.4166666666667 5.82953806115808  L 9.33333333333326 5.82953806115808  C 9.17534722222217 5.82953806115808  9.03862847222217 5.77184992409457  8.92317708333326 5.6564736499675  C 8.80772569444434 5.54109737584037  8.75 5.40446757753199  8.75 5.24658425504231  C 8.75 5.08870093255257  8.92317708333326 4.83669486011712  8.92317708333326 4.83669486011712  L 10.1809895833333 3.57970071567991  C 9.28168402777783 2.74777705486878  8.22135416666674 2.33181522446324  7 2.33181522446324  C 6.18576388888891 2.33181522446324  5.42621527777783 2.52916937757539  4.72135416666674 2.92387768379962  C 4.01649305555566 3.31858599002385  3.45138888888891 3.86206896551727  3.02604166666674 4.55432661027976  C 2.95920138888891 4.65755801344608  2.79817708333326 5.0127954890479  2.54296875 5.62003903708523  C 2.49435763888891 5.75970505313381  2.40321180555566 5.82953806115808  2.26953125 5.82953806115808  L 0.455729166666742 5.82953806115808  C 0.376736111111086 5.82953806115808  0.308376736111086 5.80069399262635  0.250651041666742 5.74300585556279  C 0.192925347222172 5.68531771849922  0.1640625 5.61700281934503  0.1640625 5.53806115810022  L 0.1640625 5.47430058555631  C 0.559027777777828 3.84688787681631  1.37934027777783 2.52765126870526  2.625 1.51659076122314  C 3.87065972222217 0.505530253741028  5.32899305555566 0  7 0  C 7.88715277777783 0  8.75 0.168510084580362  9.58854166666674 0.505530253741028  C 10.4270833333333 0.842550422901752  11.1714409722222 1.31771849924093  11.8216145833333 1.93103448275861  L 13.0065104166667 0.756018217306462  C 13.1219618055557 0.640641943179332  13.2586805555557 0.582953806115825  13.4166666666667 0.582953806115825  C 13.5746527777778 0.582953806115825  13.7113715277778 0.640641943179332  13.8268229166667 0.756018217306462  Z " fill-rule="nonzero" fill="#333333" stroke="none" transform="matrix(1 0 0 1 1312 258 )" />
  </g>
</svg>