<?xml version="1.0" encoding="utf-8"?>
<svg version="1.1" xmlns:xlink="http://www.w3.org/1999/xlink" width="13px" height="14px" xmlns="http://www.w3.org/2000/svg">
  <g transform="matrix(1 0 0 1 -372 -298 )">
    <path d="M 12.3923512747875 0  C 12.6501416430595 0  12.831208687441 0.129261363636364  12.935552407932 0.387784090909091  C 13.039896128423 0.659564393939392  12.9969310670444 0.891571969696969  12.806657223796 1.08380681818182  L 8.26770538243626 5.98579545454546  L 8.26770538243626 13.3636363636364  C 8.26770538243626 13.6420454545455  8.14801699716714 13.8375946969697  7.9086402266289 13.9502840909091  C 7.82884796978281 13.983428030303  7.75212464589235 14  7.67847025495751 14  C 7.51274787535411 14  7.37464589235128 13.9370265151515  7.26416430594901 13.8110795454545  L 4.90722379603399 11.265625  C 4.79060434372049 11.139678030303  4.73229461756374 10.9905303030303  4.73229461756374 10.8181818181818  L 4.73229461756374 5.98579545454546  L 0.193342776203966 1.08380681818182  C 0.00306893295561851 0.891571969696969  -0.0398961284230406 0.659564393939392  0.0644475920679887 0.387784090909091  C 0.168791312559018 0.129261363636364  0.34985835694051 0  0.607648725212465 0  L 12.3923512747875 0  Z " fill-rule="nonzero" fill="#797979" stroke="none" transform="matrix(1 0 0 1 372 298 )" />
  </g>
</svg>