<?xml version="1.0" encoding="utf-8"?>
<svg version="1.1" xmlns:xlink="http://www.w3.org/1999/xlink" width="11px" height="11px" xmlns="http://www.w3.org/2000/svg">
  <g transform="matrix(1 0 0 1 -202 -386 )">
    <path d="M 1.85874587458746 10.0706270627063  L 2.63564356435644 10.0706270627063  L 3.2963696369637 9.40990099009901  L 1.59009900990099 7.7036303630363  L 0.929372937293729 8.36435643564356  L 0.929372937293729 9.14125412541254  L 1.85874587458746 9.14125412541254  L 1.85874587458746 10.0706270627063  Z M 6.38217821782178 3.45610561056106  C 6.41606160616062 3.42222222222222  6.43300330033003 3.38107810781078  6.43300330033003 3.33267326732673  C 6.43300330033003 3.22618261826183  6.37975797579758 3.17293729372937  6.27326732673267 3.17293729372937  C 6.22486248624863 3.17293729372937  6.18371837183718 3.18987898789879  6.14983498349835 3.22376237623762  L 2.21452145214521 7.15907590759076  C 2.18063806380638 7.19295929592959  2.16369636963696 7.23410341034103  2.16369636963696 7.28250825082508  C 2.16369636963696 7.38899889988999  2.21694169416942 7.44224422442244  2.32343234323432 7.44224422442244  C 2.37183718371837 7.44224422442244  2.41298129812981 7.42530253025302  2.44686468646865 7.39141914191419  L 6.38217821782178 3.45610561056106  Z M 0 7.97953795379538  L 6.04092409240924 1.93861386138614  L 9.06138613861386 4.95907590759076  L 3.02046204620462 11  L 0 11  L 0 7.97953795379538  Z M 10.7313531353135 1.97491749174917  C 10.9104510451045 2.16369636963696  11 2.38393839383938  11 2.63564356435644  C 11 2.89218921892189  10.9104510451045 3.11001100110011  10.7313531353135 3.28910891089109  L 9.52607260726073 4.49438943894389  L 6.50561056105611 1.47392739273927  L 7.71089108910891 0.275907590759075  C 7.88514851485149 0.091969196919691  8.1029702970297 0  8.36435643564356 0  C 8.62090209020902 0  8.84114411441144 0.091969196919691  9.02508250825083 0.275907590759075  L 10.7313531353135 1.97491749174917  Z " fill-rule="nonzero" fill="#797979" stroke="none" transform="matrix(1 0 0 1 202 386 )" />
  </g>
</svg>