<?xml version="1.0" encoding="utf-8"?>
<svg version="1.1" xmlns:xlink="http://www.w3.org/1999/xlink" width="18px" height="19px" preserveAspectRatio="xMidYMin meet" viewBox="298 562  16 19" xmlns="http://www.w3.org/2000/svg">
  <defs>
    <mask fill="white" id="clip141">
      <path d="M 639 653  L 759 653  L 759 697  L 639 697  Z M 297 559  L 1187 559  L 1187 697  L 297 697  Z " fill-rule="evenodd" />
    </mask>
  </defs>
  <path d="M 1178.5 655  L 1178.5 670.5  A 5 5 0 0 1 1173.5 676 L 311 676  A 5 5 0 0 1 306.5 671 L 306.5 573  " stroke-width="1" stroke="#ff9900" fill="none" mask="url(#clip141)" />
  <path d="M 1178.5 654  A 3 3 0 0 0 1175.5 657 A 3 3 0 0 0 1178.5 660 A 3 3 0 0 0 1181.5 657 A 3 3 0 0 0 1178.5 654 Z M 312.8 574  L 306.5 568  L 300.2 574  L 312.8 574  Z " fill-rule="nonzero" fill="#ff9900" stroke="none" mask="url(#clip141)" />
</svg>