<?xml version="1.0" encoding="utf-8"?>
<svg version="1.1" xmlns:xlink="http://www.w3.org/1999/xlink" width="54px" height="10px" preserveAspectRatio="xMinYMid meet" viewBox="25 958  54 8" xmlns="http://www.w3.org/2000/svg">
  <path d="M 75 185.5  L 35 185.5  A 5 5 0 0 0 30.5 190.5 L 30.5 957  A 5 5 0 0 0 35.5 962.5 L 74 962.5  " stroke-width="1" stroke="#3399cc" fill="none" />
  <path d="M 73 182.5  A 3 3 0 0 0 70 185.5 A 3 3 0 0 0 73 188.5 A 3 3 0 0 0 76 185.5 A 3 3 0 0 0 73 182.5 Z M 73 968.8  L 79 962.5  L 73 956.2  L 73 968.8  Z " fill-rule="nonzero" fill="#3399cc" stroke="none" />
</svg>