<?xml version="1.0" encoding="utf-8"?>
<svg version="1.1" xmlns:xlink="http://www.w3.org/1999/xlink" width="1333px" height="19px" xmlns="http://www.w3.org/2000/svg">
  <defs>
    <mask fill="white" id="clip152">
      <path d="M 1333 19  L 1333 0  L 1306.80651960064 0  L 0 0  L 0 19  L 1306.80651960064 19  L 1333 19  Z " fill-rule="evenodd" />
    </mask>
  </defs>
  <g transform="matrix(1 0 0 1 -53 -767 )">
    <path d="M 1333 19  L 1333 0  L 1306.80651960064 0  L 0 0  L 0 19  L 1306.80651960064 19  L 1333 19  Z " fill-rule="nonzero" fill="#ffffff" stroke="none" transform="matrix(1 0 0 1 53 767 )" />
    <path d="M 1333 19  L 1333 0  L 1306.80651960064 0  L 0 0  L 0 19  L 1306.80651960064 19  L 1333 19  Z " stroke-width="2" stroke="#bbbbbb" fill="none" transform="matrix(1 0 0 1 53 767 )" mask="url(#clip152)" />
  </g>
</svg>