<?xml version="1.0" encoding="utf-8"?>
<svg version="1.1" xmlns:xlink="http://www.w3.org/1999/xlink" width="20px" height="16px" xmlns="http://www.w3.org/2000/svg">
  <g transform="matrix(1 0 0 1 -748 -127 )">
    <path d="M 19.7879464285714 13.3068181818182  C 19.9293154761905 13.4507575757576  20 13.6212121212121  20 13.8181818181818  L 20 15.2727272727273  C 20 15.469696969697  19.9293154761905 15.6401515151515  19.7879464285714 15.7840909090909  C 19.6465773809524 15.9280303030303  19.4791666666667 16  19.2857142857143 16  L 0.714285714285714 16  C 0.520833333333333 16  0.353422619047619 15.9280303030303  0.212053571428571 15.7840909090909  C 0.0706845238095238 15.6401515151515  0 15.469696969697  0 15.2727272727273  L 0 13.8181818181818  C 0 13.6212121212121  0.0706845238095238 13.4507575757576  0.212053571428571 13.3068181818182  C 0.353422619047619 13.1628787878788  0.520833333333333 13.0909090909091  0.714285714285714 13  L 19.2857142857143 13  C 19.4791666666667 13.0909090909091  19.6465773809524 13.1628787878788  19.7879464285714 13.3068181818182  Z M 19.7879464285714 8.94318181818182  C 19.9293154761905 9.08712121212121  20 9.25757575757576  20 9.45454545454545  L 20 10.9090909090909  C 20 11.1060606060606  19.9293154761905 11.2765151515152  19.7879464285714 11.4204545454545  C 19.6465773809524 11.5643939393939  19.4791666666667 11.6363636363636  19.2857142857143 11.6363636363636  L 0.714285714285714 11.6363636363636  C 0.520833333333333 11.6363636363636  0.353422619047619 11.5643939393939  0.212053571428571 11.4204545454545  C 0.0706845238095238 11.2765151515152  0 11.1060606060606  0 10.9090909090909  L 0 9.45454545454545  C 0 9.25757575757576  0.0706845238095238 9.08712121212121  0.212053571428571 8.94318181818182  C 0.353422619047619 8.79924242424242  0.520833333333333 8.72727272727273  0.714285714285714 8.72727272727273  L 19.2857142857143 8.72727272727273  C 19.4791666666667 8.72727272727273  19.6465773809524 8.79924242424242  19.7879464285714 8.94318181818182  Z M 19.7879464285714 4.57954545454546  C 19.9293154761905 4.72348484848485  20 4.89393939393939  20 5.09090909090909  L 20 6.54545454545454  C 20 6.74242424242424  19.9293154761905 6.91287878787879  19.7879464285714 7.05681818181818  C 19.6465773809524 7.20075757575758  19.4791666666667 7.27272727272727  19.2857142857143 7.27272727272727  L 0.714285714285714 7.27272727272727  C 0.520833333333333 7.27272727272727  0.353422619047619 7.20075757575758  0.212053571428571 7.05681818181818  C 0.0706845238095238 6.91287878787879  0 6.74242424242424  0 6.54545454545454  L 0 5.09090909090909  C 0 4.89393939393939  0.0706845238095238 4.72348484848485  0.212053571428571 4.57954545454546  C 0.353422619047619 4.43560606060606  0.520833333333333 4.36363636363636  0.714285714285714 4.36363636363636  L 19.2857142857143 4.36363636363636  C 19.4791666666667 4.36363636363636  19.6465773809524 4.43560606060606  19.7879464285714 4.57954545454546  Z M 19.7879464285714 0.215909090909092  C 19.9293154761905 0.359848484848483  20 0.530303030303029  20 0.727272727272727  L 20 2.18181818181818  C 20 2.37878787878788  19.9293154761905 2.54924242424242  19.7879464285714 2.69318181818182  C 19.6465773809524 2.83712121212121  19.4791666666667 2.90909090909091  19.2857142857143 3  L 0.714285714285714 3  C 0.520833333333333 2.90909090909091  0.353422619047619 2.83712121212121  0.212053571428571 2.69318181818182  C 0.0706845238095238 2.54924242424242  0 2.37878787878788  0 2.18181818181818  L 0 0.727272727272727  C 0 0.530303030303029  0.0706845238095238 0.359848484848483  0.212053571428571 0.215909090909092  C 0.353422619047619 0.0719696969696955  0.520833333333333 0  0.714285714285714 0  L 19.2857142857143 0  C 19.4791666666667 0  19.6465773809524 0.0719696969696955  19.7879464285714 0.215909090909092  Z " fill-rule="nonzero" fill="#ffffff" stroke="none" transform="matrix(1 0 0 1 748 127 )" />
  </g>
</svg>