<?xml version="1.0" encoding="utf-8"?>
<svg version="1.1" xmlns:xlink="http://www.w3.org/1999/xlink" width="18px" height="19px" preserveAspectRatio="xMidYMin meet" viewBox="1413 227  16 19" xmlns="http://www.w3.org/2000/svg">
  <path d="M 1212.5 196  L 1212.5 230  A 5 5 0 0 0 1217.5 235.5 L 1420 235.5  A 1 1 0 0 0 1421.5 234.5 " stroke-width="1" stroke="#3399cc" fill="none" />
  <path d="M 1212.5 195  A 3 3 0 0 0 1209.5 198 A 3 3 0 0 0 1212.5 201 A 3 3 0 0 0 1215.5 198 A 3 3 0 0 0 1212.5 195 Z M 1427.8 239  L 1421.5 233  L 1415.2 239  L 1427.8 239  Z " fill-rule="nonzero" fill="#3399cc" stroke="none" />
</svg>