<?xml version="1.0" encoding="utf-8"?>
<svg version="1.1" xmlns:xlink="http://www.w3.org/1999/xlink" width="19px" height="18px" preserveAspectRatio="xMinYMid meet" viewBox="837 614  19 16" xmlns="http://www.w3.org/2000/svg">
  <path d="M 721.5 485  L 810.007575757576 485  A 5 5 0 0 1 815.507575757576 490 L 815.507575757576 617  A 5 5 0 0 0 820.507575757576 622.5 L 845 622.5  " stroke-width="1" stroke="#ff9900" fill="none" />
  <path d="M 723.714601836603 482  A 3 3 0 0 0 720.714601836603 485 A 3 3 0 0 0 723.714601836603 488 A 3 3 0 0 0 726.714601836603 485 A 3 3 0 0 0 723.714601836603 482 Z M 844 628.8  L 850 622.5  L 844 616.2  L 844 628.8  Z " fill-rule="nonzero" fill="#ff9900" stroke="none" />
</svg>