<?xml version="1.0" encoding="utf-8"?>
<svg version="1.1" xmlns:xlink="http://www.w3.org/1999/xlink" width="16px" height="20px" xmlns="http://www.w3.org/2000/svg">
  <g transform="matrix(1 0 0 1 -66 -53 )">
    <path d="M 4.25568181818182 14.3917410714286  C 4.32765151515151 14.4624255952381  4.36363636363636 14.546130952381  4.36363636363636 14.6428571428571  L 4.36363636363636 15.3571428571429  C 4.36363636363636 15.453869047619  4.32765151515151 15.5375744047619  4.25568181818182 15.6082589285714  C 4.18371212121212 15.678943452381  4.09848484848485 15.7142857142857  4 15.7142857142857  L 3.27272727272727 15.7142857142857  C 3.17424242424242 15.7142857142857  3.08901515151515 15.678943452381  3.01704545454545 15.6082589285714  C 2.94507575757576 15.5375744047619  2.90909090909091 15.453869047619  2.90909090909091 15.3571428571429  L 2.90909090909091 14.6428571428571  C 2.90909090909091 14.546130952381  2.94507575757576 14.4624255952381  3.01704545454545 14.3917410714286  C 3.08901515151515 14.321056547619  3.17424242424242 14.2857142857143  3.27272727272727 14.2857142857143  L 4 14.2857142857143  C 4.09848484848485 14.2857142857143  4.18371212121212 14.321056547619  4.25568181818182 14.3917410714286  Z M 4.25568181818182 11.5345982142857  C 4.32765151515151 11.6052827380952  4.36363636363636 11.6889880952381  4.36363636363636 11.7857142857143  L 4.36363636363636 12.5  C 4.36363636363636 12.5967261904762  4.32765151515151 12.680431547619  4.25568181818182 12.7511160714286  C 4.18371212121212 12.8218005952381  4.09848484848485 12.8571428571429  4 12.8571428571429  L 3.27272727272727 12.8571428571429  C 3.17424242424242 12.8571428571429  3.08901515151515 12.8218005952381  3.01704545454545 12.7511160714286  C 2.94507575757576 12.680431547619  2.90909090909091 12.5967261904762  2.90909090909091 12.5  L 2.90909090909091 11.7857142857143  C 2.90909090909091 11.6889880952381  2.94507575757576 11.6052827380952  3.01704545454545 11.5345982142857  C 3.08901515151515 11.4639136904762  3.17424242424242 11.4285714285714  3.27272727272727 11.4285714285714  L 4 11.4285714285714  C 4.09848484848485 11.4285714285714  4.18371212121212 11.4639136904762  4.25568181818182 11.5345982142857  Z M 7.16477272727273 11.5345982142857  C 7.23674242424242 11.6052827380952  7.27272727272727 11.6889880952381  7.27272727272727 11.7857142857143  L 7.27272727272727 12.5  C 7.27272727272727 12.5967261904762  7.23674242424242 12.680431547619  7.16477272727273 12.7511160714286  C 7.09280303030303 12.8218005952381  7.00757575757576 12.8571428571429  6.90909090909091 12.8571428571429  L 6.18181818181818 12.8571428571429  C 6.08333333333333 12.8571428571429  5.99810606060606 12.8218005952381  5.92613636363636 12.7511160714286  C 5.85416666666667 12.680431547619  5.81818181818182 12.5967261904762  5.81818181818182 12.5  L 5.81818181818182 11.7857142857143  C 5.81818181818182 11.6889880952381  5.85416666666667 11.6052827380952  5.92613636363636 11.5345982142857  C 5.99810606060606 11.4639136904762  6.08333333333333 11.4285714285714  6.18181818181818 11.4285714285714  L 6.90909090909091 11.4285714285714  C 7.00757575757576 11.4285714285714  7.09280303030303 11.4639136904762  7.16477272727273 11.5345982142857  Z M 4.25568181818182 8.67745535714286  C 4.32765151515151 8.74813988095238  4.36363636363636 8.83184523809524  4.36363636363636 8.92857142857143  L 4.36363636363636 9.64285714285714  C 4.36363636363636 9.73958333333333  4.32765151515151 9.82328869047619  4.25568181818182 9.89397321428571  C 4.18371212121212 9.96465773809524  4.09848484848485 10  4 10  L 3.27272727272727 10  C 3.17424242424242 10  3.08901515151515 9.96465773809524  3.01704545454545 9.89397321428571  C 2.94507575757576 9.82328869047619  2.90909090909091 9.73958333333333  2.90909090909091 9.64285714285714  L 2.90909090909091 8.92857142857143  C 2.90909090909091 8.83184523809524  2.94507575757576 8.74813988095238  3.01704545454545 8.67745535714286  C 3.08901515151515 8.60677083333334  3.17424242424242 8.57142857142857  3.27272727272727 8.57142857142857  L 4 8.57142857142857  C 4.09848484848485 8.57142857142857  4.18371212121212 8.60677083333334  4.25568181818182 8.67745535714286  Z M 12.9829545454545 14.3917410714286  C 13.0549242424242 14.4624255952381  13.0909090909091 14.546130952381  13.0909090909091 14.6428571428571  L 13.0909090909091 15.3571428571429  C 13.0909090909091 15.453869047619  13.0549242424242 15.5375744047619  12.9829545454545 15.6082589285714  C 12.9109848484848 15.678943452381  12.8257575757576 15.7142857142857  12.7272727272727 15.7142857142857  L 12 15.7142857142857  C 11.9015151515152 15.7142857142857  11.8162878787879 15.678943452381  11.7443181818182 15.6082589285714  C 11.6723484848485 15.5375744047619  11.6363636363636 15.453869047619  11.6363636363636 15.3571428571429  L 11.6363636363636 14.6428571428571  C 11.6363636363636 14.546130952381  11.6723484848485 14.4624255952381  11.7443181818182 14.3917410714286  C 11.8162878787879 14.321056547619  11.9015151515152 14.2857142857143  12 14.2857142857143  L 12.7272727272727 14.2857142857143  C 12.8257575757576 14.2857142857143  12.9109848484848 14.321056547619  12.9829545454545 14.3917410714286  Z M 10.0738636363636 11.5345982142857  C 10.1458333333333 11.6052827380952  10.1818181818182 11.6889880952381  10.1818181818182 11.7857142857143  L 10.1818181818182 12.5  C 10.1818181818182 12.5967261904762  10.1458333333333 12.680431547619  10.0738636363636 12.7511160714286  C 10.0018939393939 12.8218005952381  9.91666666666667 12.8571428571429  9.81818181818182 12.8571428571429  L 9.09090909090909 12.8571428571429  C 8.99242424242424 12.8571428571429  8.90719696969697 12.8218005952381  8.83522727272727 12.7511160714286  C 8.76325757575758 12.680431547619  8.72727272727273 12.5967261904762  8.72727272727273 12.5  L 8.72727272727273 11.7857142857143  C 8.72727272727273 11.6889880952381  8.76325757575758 11.6052827380952  8.83522727272727 11.5345982142857  C 8.90719696969697 11.4639136904762  8.99242424242424 11.4285714285714  9.09090909090909 11.4285714285714  L 9.81818181818182 11.4285714285714  C 9.91666666666667 11.4285714285714  10.0018939393939 11.4639136904762  10.0738636363636 11.5345982142857  Z M 7.16477272727273 8.67745535714286  C 7.23674242424242 8.74813988095238  7.27272727272727 8.83184523809524  7.27272727272727 8.92857142857143  L 7.27272727272727 9.64285714285714  C 7.27272727272727 9.73958333333333  7.23674242424242 9.82328869047619  7.16477272727273 9.89397321428571  C 7.09280303030303 9.96465773809524  7.00757575757576 10  6.90909090909091 10  L 6.18181818181818 10  C 6.08333333333333 10  5.99810606060606 9.96465773809524  5.92613636363636 9.89397321428571  C 5.85416666666667 9.82328869047619  5.81818181818182 9.73958333333333  5.81818181818182 9.64285714285714  L 5.81818181818182 8.92857142857143  C 5.81818181818182 8.83184523809524  5.85416666666667 8.74813988095238  5.92613636363636 8.67745535714286  C 5.99810606060606 8.60677083333334  6.08333333333333 8.57142857142857  6.18181818181818 8.57142857142857  L 6.90909090909091 8.57142857142857  C 7.00757575757576 8.57142857142857  7.09280303030303 8.60677083333334  7.16477272727273 8.67745535714286  Z M 4.25568181818182 5.8203125  C 4.32765151515151 5.89099702380952  4.36363636363636 5.97470238095238  4.36363636363636 6.07142857142857  L 4.36363636363636 6.78571428571429  C 4.36363636363636 6.88244047619047  4.32765151515151 6.96614583333333  4.25568181818182 7.03683035714286  C 4.18371212121212 7.10751488095238  4.09848484848485 7.14285714285714  4 7.14285714285714  L 3.27272727272727 7.14285714285714  C 3.17424242424242 7.14285714285714  3.08901515151515 7.10751488095238  3.01704545454545 7.03683035714286  C 2.94507575757576 6.96614583333333  2.90909090909091 6.88244047619047  2.90909090909091 6.78571428571429  L 2.90909090909091 6.07142857142857  C 2.90909090909091 5.97470238095238  2.94507575757576 5.89099702380952  3.01704545454545 5.8203125  C 3.08901515151515 5.74962797619047  3.17424242424242 5.71428571428571  3.27272727272727 5.71428571428571  L 4 5.71428571428571  C 4.09848484848485 5.71428571428571  4.18371212121212 5.74962797619047  4.25568181818182 5.8203125  Z M 12.9829545454545 11.5345982142857  C 13.0549242424242 11.6052827380952  13.0909090909091 11.6889880952381  13.0909090909091 11.7857142857143  L 13.0909090909091 12.5  C 13.0909090909091 12.5967261904762  13.0549242424242 12.680431547619  12.9829545454545 12.7511160714286  C 12.9109848484848 12.8218005952381  12.8257575757576 12.8571428571429  12.7272727272727 12.8571428571429  L 12 12.8571428571429  C 11.9015151515152 12.8571428571429  11.8162878787879 12.8218005952381  11.7443181818182 12.7511160714286  C 11.6723484848485 12.680431547619  11.6363636363636 12.5967261904762  11.6363636363636 12.5  L 11.6363636363636 11.7857142857143  C 11.6363636363636 11.6889880952381  11.6723484848485 11.6052827380952  11.7443181818182 11.5345982142857  C 11.8162878787879 11.4639136904762  11.9015151515152 11.4285714285714  12 11.4285714285714  L 12.7272727272727 11.4285714285714  C 12.8257575757576 11.4285714285714  12.9109848484848 11.4639136904762  12.9829545454545 11.5345982142857  Z M 10.0738636363636 8.67745535714286  C 10.1458333333333 8.74813988095238  10.1818181818182 8.83184523809524  10.1818181818182 8.92857142857143  L 10.1818181818182 9.64285714285714  C 10.1818181818182 9.73958333333333  10.1458333333333 9.82328869047619  10.0738636363636 9.89397321428571  C 10.0018939393939 9.96465773809524  9.91666666666667 10  9.81818181818182 10  L 9.09090909090909 10  C 8.99242424242424 10  8.90719696969697 9.96465773809524  8.83522727272727 9.89397321428571  C 8.76325757575758 9.82328869047619  8.72727272727273 9.73958333333333  8.72727272727273 9.64285714285714  L 8.72727272727273 8.92857142857143  C 8.72727272727273 8.83184523809524  8.76325757575758 8.74813988095238  8.83522727272727 8.67745535714286  C 8.90719696969697 8.60677083333334  8.99242424242424 8.57142857142857  9.09090909090909 8.57142857142857  L 9.81818181818182 8.57142857142857  C 9.91666666666667 8.57142857142857  10.0018939393939 8.60677083333334  10.0738636363636 8.67745535714286  Z M 7.16477272727273 5.8203125  C 7.23674242424242 5.89099702380952  7.27272727272727 5.97470238095238  7.27272727272727 6.07142857142857  L 7.27272727272727 6.78571428571429  C 7.27272727272727 6.88244047619047  7.23674242424242 6.96614583333333  7.16477272727273 7.03683035714286  C 7.09280303030303 7.10751488095238  7.00757575757576 7.14285714285714  6.90909090909091 7.14285714285714  L 6.18181818181818 7.14285714285714  C 6.08333333333333 7.14285714285714  5.99810606060606 7.10751488095238  5.92613636363636 7.03683035714286  C 5.85416666666667 6.96614583333333  5.81818181818182 6.88244047619047  5.81818181818182 6.78571428571429  L 5.81818181818182 6.07142857142857  C 5.81818181818182 5.97470238095238  5.85416666666667 5.89099702380952  5.92613636363636 5.8203125  C 5.99810606060606 5.74962797619047  6.08333333333333 5.71428571428571  6.18181818181818 5.71428571428571  L 6.90909090909091 5.71428571428571  C 7.00757575757576 5.71428571428571  7.09280303030303 5.74962797619047  7.16477272727273 5.8203125  Z M 4.25568181818182 2.96316964285714  C 4.32765151515151 3.03385416666667  4.36363636363636 3.11755952380952  4.36363636363636 3.21428571428571  L 4.36363636363636 3.92857142857143  C 4.36363636363636 4.02529761904762  4.32765151515151 4.10900297619047  4.25568181818182 4.1796875  C 4.18371212121212 4.25037202380952  4.09848484848485 4.28571428571429  4 4.28571428571429  L 3.27272727272727 4.28571428571429  C 3.17424242424242 4.28571428571429  3.08901515151515 4.25037202380952  3.01704545454545 4.1796875  C 2.94507575757576 4.10900297619047  2.90909090909091 4.02529761904762  2.90909090909091 3.92857142857143  L 2.90909090909091 3.21428571428571  C 2.90909090909091 3.11755952380952  2.94507575757576 3.03385416666667  3.01704545454545 2.96316964285714  C 3.08901515151515 2.89248511904762  3.17424242424242 2.85714285714286  3.27272727272727 2.85714285714286  L 4 2.85714285714286  C 4.09848484848485 2.85714285714286  4.18371212121212 2.89248511904762  4.25568181818182 2.96316964285714  Z M 12.9829545454545 8.67745535714286  C 13.0549242424242 8.74813988095238  13.0909090909091 8.83184523809524  13.0909090909091 8.92857142857143  L 13.0909090909091 9.64285714285714  C 13.0909090909091 9.73958333333333  13.0549242424242 9.82328869047619  12.9829545454545 9.89397321428571  C 12.9109848484848 9.96465773809524  12.8257575757576 10  12.7272727272727 10  L 12 10  C 11.9015151515152 10  11.8162878787879 9.96465773809524  11.7443181818182 9.89397321428571  C 11.6723484848485 9.82328869047619  11.6363636363636 9.73958333333333  11.6363636363636 9.64285714285714  L 11.6363636363636 8.92857142857143  C 11.6363636363636 8.83184523809524  11.6723484848485 8.74813988095238  11.7443181818182 8.67745535714286  C 11.8162878787879 8.60677083333334  11.9015151515152 8.57142857142857  12 8.57142857142857  L 12.7272727272727 8.57142857142857  C 12.8257575757576 8.57142857142857  12.9109848484848 8.60677083333334  12.9829545454545 8.67745535714286  Z M 10.0738636363636 5.8203125  C 10.1458333333333 5.89099702380952  10.1818181818182 5.97470238095238  10.1818181818182 6.07142857142857  L 10.1818181818182 6.78571428571429  C 10.1818181818182 6.88244047619047  10.1458333333333 6.96614583333333  10.0738636363636 7.03683035714286  C 10.0018939393939 7.10751488095238  9.91666666666667 7.14285714285714  9.81818181818182 7.14285714285714  L 9.09090909090909 7.14285714285714  C 8.99242424242424 7.14285714285714  8.90719696969697 7.10751488095238  8.83522727272727 7.03683035714286  C 8.76325757575758 6.96614583333333  8.72727272727273 6.88244047619047  8.72727272727273 6.78571428571429  L 8.72727272727273 6.07142857142857  C 8.72727272727273 5.97470238095238  8.76325757575758 5.89099702380952  8.83522727272727 5.8203125  C 8.90719696969697 5.74962797619047  8.99242424242424 5.71428571428571  9.09090909090909 5.71428571428571  L 9.81818181818182 5.71428571428571  C 9.91666666666667 5.71428571428571  10.0018939393939 5.74962797619047  10.0738636363636 5.8203125  Z M 7.16477272727273 2.96316964285714  C 7.23674242424242 3.03385416666667  7.27272727272727 3.11755952380952  7.27272727272727 3.21428571428571  L 7.27272727272727 3.92857142857143  C 7.27272727272727 4.02529761904762  7.23674242424242 4.10900297619047  7.16477272727273 4.1796875  C 7.09280303030303 4.25037202380952  7.00757575757576 4.28571428571429  6.90909090909091 4.28571428571429  L 6.18181818181818 4.28571428571429  C 6.08333333333333 4.28571428571429  5.99810606060606 4.25037202380952  5.92613636363636 4.1796875  C 5.85416666666667 4.10900297619047  5.81818181818182 4.02529761904762  5.81818181818182 3.92857142857143  L 5.81818181818182 3.21428571428571  C 5.81818181818182 3.11755952380952  5.85416666666667 3.03385416666667  5.92613636363636 2.96316964285714  C 5.99810606060606 2.89248511904762  6.08333333333333 2.85714285714286  6.18181818181818 2.85714285714286  L 6.90909090909091 2.85714285714286  C 7.00757575757576 2.85714285714286  7.09280303030303 2.89248511904762  7.16477272727273 2.96316964285714  Z M 12.9829545454545 5.8203125  C 13.0549242424242 5.89099702380952  13.0909090909091 5.97470238095238  13.0909090909091 6.07142857142857  L 13.0909090909091 6.78571428571429  C 13.0909090909091 6.88244047619047  13.0549242424242 6.96614583333333  12.9829545454545 7.03683035714286  C 12.9109848484848 7.10751488095238  12.8257575757576 7.14285714285714  12.7272727272727 7.14285714285714  L 12 7.14285714285714  C 11.9015151515152 7.14285714285714  11.8162878787879 7.10751488095238  11.7443181818182 7.03683035714286  C 11.6723484848485 6.96614583333333  11.6363636363636 6.88244047619047  11.6363636363636 6.78571428571429  L 11.6363636363636 6.07142857142857  C 11.6363636363636 5.97470238095238  11.6723484848485 5.89099702380952  11.7443181818182 5.8203125  C 11.8162878787879 5.74962797619047  11.9015151515152 5.71428571428571  12 5.71428571428571  L 12.7272727272727 5.71428571428571  C 12.8257575757576 5.71428571428571  12.9109848484848 5.74962797619047  12.9829545454545 5.8203125  Z M 10.0738636363636 2.96316964285714  C 10.1458333333333 3.03385416666667  10.1818181818182 3.11755952380952  10.1818181818182 3.21428571428571  L 10.1818181818182 3.92857142857143  C 10.1818181818182 4.02529761904762  10.1458333333333 4.10900297619047  10.0738636363636 4.1796875  C 10.0018939393939 4.25037202380952  9.91666666666667 4.28571428571429  9.81818181818182 4.28571428571429  L 9.09090909090909 4.28571428571429  C 8.99242424242424 4.28571428571429  8.90719696969697 4.25037202380952  8.83522727272727 4.1796875  C 8.76325757575758 4.10900297619047  8.72727272727273 4.02529761904762  8.72727272727273 3.92857142857143  L 8.72727272727273 3.21428571428571  C 8.72727272727273 3.11755952380952  8.76325757575758 3.03385416666667  8.83522727272727 2.96316964285714  C 8.90719696969697 2.89248511904762  8.99242424242424 2.85714285714286  9.09090909090909 2.85714285714286  L 9.81818181818182 2.85714285714286  C 9.91666666666667 2.85714285714286  10.0018939393939 2.89248511904762  10.0738636363636 2.96316964285714  Z M 12.9829545454545 2.96316964285714  C 13.0549242424242 3.03385416666667  13.0909090909091 3.11755952380952  13.0909090909091 3.21428571428571  L 13.0909090909091 3.92857142857143  C 13.0909090909091 4.02529761904762  13.0549242424242 4.10900297619047  12.9829545454545 4.1796875  C 12.9109848484848 4.25037202380952  12.8257575757576 4.28571428571429  12.7272727272727 4.28571428571429  L 12 4.28571428571429  C 11.9015151515152 4.28571428571429  11.8162878787879 4.25037202380952  11.7443181818182 4.1796875  C 11.6723484848485 4.10900297619047  11.6363636363636 4.02529761904762  11.6363636363636 3.92857142857143  L 11.6363636363636 3.21428571428571  C 11.6363636363636 3.11755952380952  11.6723484848485 3.03385416666667  11.7443181818182 2.96316964285714  C 11.8162878787879 2.89248511904762  11.9015151515152 2.85714285714286  12 2.85714285714286  L 12.7272727272727 2.85714285714286  C 12.8257575757576 2.85714285714286  12.9109848484848 2.89248511904762  12.9829545454545 2.96316964285714  Z M 10.1818181818182 16.0714285714286  L 10.1818181818182 18.5714285714286  L 14.5454545454545 18.5714285714286  L 14.5454545454545 1.42857142857143  L 1.45454545454545 1.42857142857143  L 1.45454545454545 18.5714285714286  L 5.81818181818182 18.5714285714286  L 5.81818181818182 16.0714285714286  C 5.81818181818182 15.9747023809524  5.85416666666667 15.8909970238095  5.92613636363636 15.8203125  C 5.99810606060606 15.7496279761905  6.08333333333333 15.7142857142857  6.18181818181818 15.7142857142857  L 9.81818181818182 15.7142857142857  C 9.91666666666667 15.7142857142857  10.0018939393939 15.7496279761905  10.0738636363636 15.8203125  C 10.1458333333333 15.8909970238095  10.1818181818182 15.9747023809524  10.1818181818182 16.0714285714286  Z M 15.7840909090909 0.212053571428572  C 15.9280303030303 0.353422619047616  16 0.520833333333333  16 0.714285714285714  L 16 19.2857142857143  C 16 19.4791666666667  15.9280303030303 19.6465773809524  15.7840909090909 19.7879464285714  C 15.6401515151515 19.9293154761905  15.469696969697 20  15.2727272727273 20  L 0.727272727272727 20  C 0.53030303030303 20  0.359848484848485 19.9293154761905  0.215909090909091 19.7879464285714  C 0.071969696969697 19.6465773809524  0 19.4791666666667  0 19.2857142857143  L 0 0.714285714285714  C 0 0.520833333333333  0.071969696969697 0.353422619047616  0.215909090909091 0.212053571428572  C 0.359848484848485 0.0706845238095255  0.53030303030303 0  0.727272727272727 0  L 15.2727272727273 0  C 15.469696969697 0  15.6401515151515 0.0706845238095255  15.7840909090909 0.212053571428572  Z " fill-rule="nonzero" fill="#797979" stroke="none" transform="matrix(1 0 0 1 66 53 )" />
  </g>
</svg>