<?xml version="1.0" encoding="utf-8"?>
<svg version="1.1" xmlns:xlink="http://www.w3.org/1999/xlink" width="23px" height="23px" xmlns="http://www.w3.org/2000/svg">
  <g transform="matrix(1 0 0 1 -503 -569 )">
    <path d="M 0.0244854506742381 0.873934659090908  C -0.0136030281523554 1.09718276515151  0.0217648450437655 1.31226325757576  0.130589070262598 1.51917613636364  L 10.5777146912704 22.4282670454545  C 10.7627158741424 22.8094223484848  11.0728649160161 23  11.5081618168914 23  C 11.5625739295008 23  11.6441920984149 22.9891098484848  11.7530163236338 22.9673295454545  C 11.9924296191152 22.9128787878788  12.1855926188786 22.7903645833333  12.3325053229241 22.5997869318182  C 12.4794180269695 22.409209280303  12.5528743789922 22.1941287878788  12.5528743789922 21.9545454545455  L 12.5528743789922 12.5454545454545  L 21.9552874378992 12.5454545454545  C 22.1947007333806 12.5454545454545  22.4096285781878 12.4719460227273  22.6000709723208 12.3249289772727  C 22.7905133664538 12.1779119318182  22.9129406198249 11.9846117424242  22.9673527324344 11.7450284090909  C 23.0217648450438 11.5054450757576  23 11.2767518939394  22.9020581973031 11.0589488636364  C 22.8041163946061 10.8411458333333  22.6463212680388 10.6777935606061  22.4286728176011 10.5688920454545  L 1.53442157558552 0.114346590909092  C 1.39295008280104 0.0381155303030288  1.23515495623373 0  1.06103619588361 0  C 0.767210787792762 0  0.52235628105039 0.103456439393937  0.326472675656493 0.310369318181819  C 0.163236337828247 0.462831439393937  0.0625739295008265 0.650686553030301  0.0244854506742381 0.873934659090908  Z " fill-rule="nonzero" fill="#333333" stroke="none" transform="matrix(1 0 0 1 503 569 )" />
  </g>
</svg>