<?xml version="1.0" encoding="utf-8"?>
<svg version="1.1" xmlns:xlink="http://www.w3.org/1999/xlink" width="158px" height="10px" preserveAspectRatio="xMinYMid meet" viewBox="1682 1204.74242424242  158 8" xmlns="http://www.w3.org/2000/svg">
  <path d="M 1687.5 1173  L 1687.5 1203.74242424242  A 5 5 0 0 0 1692.5 1209.24242424242 L 1830 1209.24242424242  A 5 5 0 0 1 1835.5 1214.24242424242 L 1835.5 1283  " stroke-width="1" stroke="#3399cc" fill="none" />
  <path d="M 1687.5 1172  A 3 3 0 0 0 1684.5 1175 A 3 3 0 0 0 1687.5 1178 A 3 3 0 0 0 1690.5 1175 A 3 3 0 0 0 1687.5 1172 Z M 1829.2 1282  L 1835.5 1288  L 1841.8 1282  L 1829.2 1282  Z " fill-rule="nonzero" fill="#3399cc" stroke="none" />
</svg>