<?xml version="1.0" encoding="utf-8"?>
<svg version="1.1" xmlns:xlink="http://www.w3.org/1999/xlink" width="183px" height="10px" preserveAspectRatio="xMinYMid meet" viewBox="412 1228.5  183 8" xmlns="http://www.w3.org/2000/svg">
  <path d="M 590.5 1183  L 590.5 1227.5  A 5 5 0 0 1 585.5 1233 L 422 1233  A 5 5 0 0 0 417.5 1238 L 417.5 1257  " stroke-width="1" stroke="#ff9900" fill="none" />
  <path d="M 590.5 1182  A 3 3 0 0 0 587.5 1185 A 3 3 0 0 0 590.5 1188 A 3 3 0 0 0 593.5 1185 A 3 3 0 0 0 590.5 1182 Z M 411.2 1256  L 417.5 1262  L 423.8 1256  L 411.2 1256  Z " fill-rule="nonzero" fill="#ff9900" stroke="none" />
</svg>