<?xml version="1.0" encoding="utf-8"?>
<svg version="1.1" xmlns:xlink="http://www.w3.org/1999/xlink" width="10px" height="41.75px" preserveAspectRatio="xMidYMin meet" viewBox="1967 791.596153846154  8 41.75" xmlns="http://www.w3.org/2000/svg">
  <path d="M 1971.5 793  L 1971.5 823.346153846154  A 5 5 0 0 0 1976.5 828.846153846154 L 2114 828.846153846154  A 5 5 0 0 1 2119.5 833.846153846154 L 2119.5 903  " stroke-width="1" stroke="#3399cc" fill="none" />
  <path d="M 1971.5 792  A 3 3 0 0 0 1968.5 795 A 3 3 0 0 0 1971.5 798 A 3 3 0 0 0 1974.5 795 A 3 3 0 0 0 1971.5 792 Z M 2113.2 902  L 2119.5 908  L 2125.8 902  L 2113.2 902  Z " fill-rule="nonzero" fill="#3399cc" stroke="none" />
</svg>