<?xml version="1.0" encoding="utf-8"?>
<svg version="1.1" xmlns:xlink="http://www.w3.org/1999/xlink" width="14px" height="26px" xmlns="http://www.w3.org/2000/svg">
  <g transform="matrix(1 0 0 1 -1111 -471 )">
    <path d="M 13.7594501718213 12.4008016032064  C 13.9198167239404 12.5744822979292  14 12.7742150968604  14 13  C 14 13.2257849031396  13.9198167239404 13.4255177020708  13.7594501718213 13.5991983967936  L 2.54982817869416 25.7394789579158  C 2.38946162657503 25.9131596526386  2.20504009163803 26  1.99656357388316 26  C 1.78808705612829 26  1.60366552119129 25.9131596526386  1.44329896907216 25.7394789579158  L 0.240549828178694 24.436873747495  C 0.0801832760595648 24.2631930527722  0 24.063460253841  0 23.8376753507014  C 0 23.6118904475618  0.0801832760595648 23.4121576486306  0.240549828178694 23.2384769539078  L 9.69415807560137 13  L 0.240549828178694 2.76152304609218  C 0.0801832760595648 2.5878423513694  0 2.38810955243821  0 2.1623246492986  C 0 1.93653974615898  0.0801832760595648 1.73680694722779  0.240549828178694 1.56312625250501  L 1.44329896907216 0.260521042084169  C 1.60366552119129 0.0868403473613886  1.78808705612829 0  1.99656357388316 0  C 2.20504009163803 0  2.38946162657503 0.0868403473613886  2.54982817869416 0.260521042084169  L 13.7594501718213 12.4008016032064  Z " fill-rule="nonzero" fill="#797979" stroke="none" transform="matrix(1 0 0 1 1111 471 )" />
  </g>
</svg>