<?xml version="1.0" encoding="utf-8"?>
<svg version="1.1" xmlns:xlink="http://www.w3.org/1999/xlink" width="15px" height="17px" xmlns="http://www.w3.org/2000/svg">
  <g transform="matrix(1 0 0 1 -1743 -316 )">
    <path d="M 13.9285714285714 11.3259162303665  C 14.6428571428571 12.0527923211169  15 12.9243019197208  15 13.940445026178  C 15 14.8082460732984  14.7178571428571 15.5351221640489  14.1535714285714 16.1210732984293  C 13.5892857142857 16.7070244328098  12.8892857142857 17  12.0535714285714 17  C 11.0892857142857 17  10.25 16.6291448516579  9.53571428571428 15.8874345549738  L 1.21071428571429 7.25392670157068  C 0.403571428571429 6.40095986038394  0 5.39594240837696  0 4.23887434554974  C 0 3.05955497382199  0.392857142857143 2.05824607329843  1.17857142857143 1.23494764397906  C 1.96428571428571 0.411649214659686  2.925 0  4.06071428571429 0  C 5.18928571428571 0  6.16428571428571 0.419066317626524  6.98571428571429 1.25719895287958  L 13.4678571428571 7.99934554973822  C 13.5392857142857 8.07351657940663  13.575 8.15510471204188  13.575 8.24410994764398  C 13.575 8.36278359511344  13.4660714285714 8.5352312390925  13.2482142857143 8.76145287958115  C 13.0303571428571 8.98767452006981  12.8642857142857 9.10078534031414  12.75 9.10078534031414  C 12.6571428571429 9.10078534031414  12.575 9.06369982547993  12.5035714285714 8.98952879581152  L 6.01071428571429 2.23625654450262  C 5.44642857142857 1.66513961605585  4.8 1.37958115183246  4.07142857142857 1.37958115183246  C 3.31428571428571 1.37958115183246  2.675 1.657722513089  2.15357142857143 2.21400523560209  C 1.63214285714286 2.77028795811518  1.37142857142857 3.44153577661431  1.37142857142857 4.22774869109948  C 1.37142857142857 5.0065445026178  1.64285714285714 5.67779232111693  2.18571428571429 6.24149214659686  L 10.5 14.8861256544503  C 10.95 15.3534031413613  11.4678571428571 15.5870418848168  12.0535714285714 15.5870418848168  C 12.5107142857143 15.5870418848168  12.8892857142857 15.4312827225131  13.1892857142857 15.1197643979058  C 13.4892857142857 14.8082460732984  13.6392857142857 14.4151396160558  13.6392857142857 13.940445026178  C 13.6392857142857 13.332242582897  13.4142857142857 12.794502617801  12.9642857142857 12.3272251308901  L 6.73928571428571 5.86321989528796  C 6.55357142857143 5.68520942408377  6.33928571428572 5.59620418848168  6.09642857142857 5.59620418848168  C 5.88928571428572 5.59620418848168  5.71785714285714 5.66666666666667  5.58214285714286 5.80759162303665  C 5.44642857142857 5.94851657940663  5.37857142857143 6.12652705061082  5.37857142857143 6.34162303664922  C 5.37857142857143 6.57897033158813  5.46785714285714 6.79777486910995  5.64642857142857 6.99803664921466  L 10.0392857142857 11.559554973822  C 10.1107142857143 11.6337260034904  10.1464285714286 11.7153141361257  10.1464285714286 11.8043193717278  C 10.1464285714286 11.9229930191972  10.0357142857143 12.097294938918  9.81428571428571 12.3272251308901  C 9.59285714285714 12.5571553228621  9.425 12.6721204188482  9.31071428571429 12.6721204188482  C 9.225 12.6721204188482  9.14642857142857 12.635034904014  9.075 12.5608638743456  L 4.68214285714286 7.99934554973822  C 4.23214285714286 7.54690226876091  4.00714285714286 6.99432809773124  4.00714285714286 6.34162303664922  C 4.00714285714286 5.73342059336824  4.21071428571429 5.21793193717278  4.61785714285714 4.79515706806283  C 5.025 4.37238219895288  5.52142857142857 4.16099476439791  6.10714285714286 4.16099476439791  C 6.73571428571429 4.16099476439791  7.26785714285714 4.3946335078534  7.70357142857143 4.8619109947644  L 13.9285714285714 11.3259162303665  Z " fill-rule="nonzero" fill="#797979" stroke="none" transform="matrix(1 0 0 1 1743 316 )" />
  </g>
</svg>