<?xml version="1.0" encoding="utf-8"?>
<svg version="1.1" xmlns:xlink="http://www.w3.org/1999/xlink" width="126px" height="101px" xmlns="http://www.w3.org/2000/svg">
  <g transform="matrix(1 0 0 1 -2421 -682 )">
    <path d="M 38.325 20.515625  C 40.775 22.9704861111111  42 25.9513888888889  42 29.4583333333333  C 42 32.9652777777778  40.775 35.9461805555556  38.325 38.4010416666667  C 35.875 40.8559027777778  32.9 42.0833333333333  29.4 42.0833333333333  C 25.9 42.0833333333333  22.925 40.8559027777778  20.475 38.4010416666667  C 18.025 35.9461805555556  16.8 32.9652777777778  16.8 29.4583333333333  C 16.8 25.9513888888889  18.025 22.9704861111111  20.475 20.515625  C 22.925 18.0607638888889  25.9 16.8333333333333  29.4 16.8333333333333  C 32.9 16.8333333333333  35.875 18.0607638888889  38.325 20.515625  Z M 81.9 27.3541666666667  L 109 54.7083333333333  L 109 84  L 17 84  L 17 71.5416666666667  L 37.8 50.5  L 48.3 61.0208333333333  L 81.9 27.3541666666667  Z M 116.9765625 9.04134114583333  C 116.5609375 8.62489149305555  116.06875 8.41666666666667  115.5 9  L 10.5 9  C 9.93125 8.41666666666667  9.4390625 8.62489149305555  9.0234375 9.04134114583333  C 8.6078125 9.4577907986111  8.4 9.9509548611111  9 10.5208333333333  L 9 90.4791666666667  C 8.4 91.0490451388889  8.6078125 91.5422092013889  9.0234375 91.9586588541667  C 9.4390625 92.3751085069444  9.93125 92.5833333333333  10.5 92  L 115.5 92  C 116.06875 92.5833333333333  116.5609375 92.3751085069444  116.9765625 91.9586588541667  C 117.3921875 91.5422092013889  117.6 91.0490451388889  117 90.4791666666667  L 117 10.5208333333333  C 117.6 9.9509548611111  117.3921875 9.4577907986111  116.9765625 9.04134114583333  Z M 122.915625 3.09049479166667  C 124.971875 5.15082465277777  126 7.62760416666667  126 10.5208333333333  L 126 90.4791666666667  C 126 93.3723958333333  124.971875 95.8491753472222  122.915625 97.9095052083333  C 120.859375 99.9698350694444  118.3875 101  115.5 101  L 10.5 101  C 7.6125 101  5.140625 99.9698350694444  3.084375 97.9095052083333  C 1.028125 95.8491753472222  0 93.3723958333333  0 90.4791666666667  L 0 10.5208333333333  C 0 7.62760416666667  1.028125 5.15082465277777  3.084375 3.09049479166667  C 5.140625 1.03016493055555  7.6125 0  10.5 0  L 115.5 0  C 118.3875 0  120.859375 1.03016493055555  122.915625 3.09049479166667  Z " fill-rule="nonzero" fill="#a1a1a1" stroke="none" transform="matrix(1 0 0 1 2421 682 )" />
  </g>
</svg>