<?xml version="1.0" encoding="utf-8"?>
<svg version="1.1" xmlns:xlink="http://www.w3.org/1999/xlink" width="10px" height="74px" preserveAspectRatio="xMidYMin meet" viewBox="380 265  8 74" xmlns="http://www.w3.org/2000/svg">
  <path d="M 384.5 338  L 384.5 275  A 5 5 0 0 0 379.5 270.5 L 236 270.5  A 5 5 0 0 1 231.5 265.5 L 231.5 248  " stroke-width="1" stroke="#ff9900" fill="none" />
  <path d="M 384.5 333  A 3 3 0 0 0 381.5 336 A 3 3 0 0 0 384.5 339 A 3 3 0 0 0 387.5 336 A 3 3 0 0 0 384.5 333 Z M 237.8 249  L 231.5 243  L 225.2 249  L 237.8 249  Z " fill-rule="nonzero" fill="#ff9900" stroke="none" />
</svg>