<?xml version="1.0" encoding="utf-8"?>
<svg version="1.1" xmlns:xlink="http://www.w3.org/1999/xlink" width="19px" height="18px" preserveAspectRatio="xMinYMid meet" viewBox="795 225  19 16" xmlns="http://www.w3.org/2000/svg">
  <path d="M 810 346.5  L 815 346.5  A 5 5 0 0 0 820.5 341.5 L 820.5 238  A 5 5 0 0 0 815.5 233.5 L 806 233.5  " stroke-width="1" stroke="#ff9900" fill="none" />
  <path d="M 812 343.5  A 3 3 0 0 0 809 346.5 A 3 3 0 0 0 812 349.5 A 3 3 0 0 0 815 346.5 A 3 3 0 0 0 812 343.5 Z M 807 227.2  L 801 233.5  L 807 239.8  L 807 227.2  Z " fill-rule="nonzero" fill="#ff9900" stroke="none" />
</svg>