<?xml version="1.0" encoding="utf-8"?>
<svg version="1.1" xmlns:xlink="http://www.w3.org/1999/xlink" width="10px" height="5px" preserveAspectRatio="xMinYMid meet" viewBox="923 342  10 3" xmlns="http://www.w3.org/2000/svg">
  <path d="M 928.624350313157 347.489615837018  A 4 4 0 0 0 932.5 350.5 L 939.666666666667 350.5  A 5 5 0 0 1 945.166666666667 355.5 L 945.166666666667 429  A 5 5 0 0 1 940.166666666667 434.5 L 924 434.5  " stroke-width="1" stroke="#ff9900" fill="none" />
  <path d="M 929.573244524505 346.226555040093  A 3 3 0 0 0 926.573244524505 349.226555040093 A 3 3 0 0 0 929.573244524505 352.226555040093 A 3 3 0 0 0 932.573244524505 349.226555040093 A 3 3 0 0 0 929.573244524505 346.226555040093 Z M 925 428.2  L 919 434.5  L 925 440.8  L 925 428.2  Z " fill-rule="nonzero" fill="#ff9900" stroke="none" />
</svg>