<?xml version="1.0" encoding="utf-8"?>
<svg version="1.1" xmlns:xlink="http://www.w3.org/1999/xlink" width="44px" height="10px" preserveAspectRatio="xMinYMid meet" viewBox="1301 427  44 8" xmlns="http://www.w3.org/2000/svg">
  <path d="M 1332.63082135512 346.488497886658  A 3.80000000000001 3.80000000000001 0 0 0 1336.3 349.3 A 4.20000000000005 4.20000000000005 0 0 1 1340.5 353.5 L 1340.5 426  A 5 5 0 0 1 1335.5 431.5 L 1306 431.5  " stroke-width="1" stroke="#ff9900" fill="none" />
  <path d="M 1333.62396746449 345.19793437075  A 3 3 0 0 0 1330.62396746449 348.19793437075 A 3 3 0 0 0 1333.62396746449 351.19793437075 A 3 3 0 0 0 1336.62396746449 348.19793437075 A 3 3 0 0 0 1333.62396746449 345.19793437075 Z M 1307 425.2  L 1301 431.5  L 1307 437.8  L 1307 425.2  Z " fill-rule="nonzero" fill="#ff9900" stroke="none" />
</svg>