<?xml version="1.0" encoding="utf-8"?>
<svg version="1.1" xmlns:xlink="http://www.w3.org/1999/xlink" width="14px" height="10px" preserveAspectRatio="xMinYMid meet" viewBox="1847 342  14 8" xmlns="http://www.w3.org/2000/svg">
  <path d="M 1848 346.5  L 1851 346.5  A 5 5 0 0 1 1856.5 351.5 L 1856.5 433  A 5 5 0 0 1 1851.5 438.5 L 1829 438.5  " stroke-width="1" stroke="#ff9900" fill="none" />
  <path d="M 1850 343.5  A 3 3 0 0 0 1847 346.5 A 3 3 0 0 0 1850 349.5 A 3 3 0 0 0 1853 346.5 A 3 3 0 0 0 1850 343.5 Z M 1830 432.2  L 1824 438.5  L 1830 444.8  L 1830 432.2  Z " fill-rule="nonzero" fill="#ff9900" stroke="none" />
</svg>