<?xml version="1.0" encoding="utf-8"?>
<svg version="1.1" xmlns:xlink="http://www.w3.org/1999/xlink" width="18px" height="19px" preserveAspectRatio="xMidYMin meet" viewBox="1404 240  16 19" xmlns="http://www.w3.org/2000/svg">
  <path d="M 1437.5 345  L 1437.5 288.2  A 5 5 0 0 0 1432.5 283.7 L 1417 283.7  A 5 5 0 0 1 1412.5 278.7 L 1412.5 251  " stroke-width="1" stroke="#ff9900" fill="none" />
  <path d="M 1437.5 340  A 3 3 0 0 0 1434.5 343 A 3 3 0 0 0 1437.5 346 A 3 3 0 0 0 1440.5 343 A 3 3 0 0 0 1437.5 340 Z M 1418.8 252  L 1412.5 246  L 1406.2 252  L 1418.8 252  Z " fill-rule="nonzero" fill="#ff9900" stroke="none" />
</svg>