<?xml version="1.0" encoding="utf-8"?>
<svg version="1.1" xmlns:xlink="http://www.w3.org/1999/xlink" width="45.2px" height="10px" preserveAspectRatio="xMinYMid meet" viewBox="1511 416  45.2 8" xmlns="http://www.w3.org/2000/svg">
  <path d="M 1546.7 346.5  A 5 5 0 0 1 1551.7 351.5 L 1551.7 415  A 5 5 0 0 1 1546.7 420.5 L 1521 420.5  A 5 5 0 0 0 1516.5 425.5 L 1516.5 433  " stroke-width="1" stroke="#ff9900" fill="none" />
  <path d="M 1549.3559309896 344.263724444933  A 3 3 0 0 0 1546.3559309896 347.263724444933 A 3 3 0 0 0 1549.3559309896 350.263724444933 A 3 3 0 0 0 1552.3559309896 347.263724444933 A 3 3 0 0 0 1549.3559309896 344.263724444933 Z M 1510.2 432  L 1516.5 438  L 1522.8 432  L 1510.2 432  Z " fill-rule="nonzero" fill="#ff9900" stroke="none" />
</svg>