<?xml version="1.0" encoding="utf-8"?>
<svg version="1.1" xmlns:xlink="http://www.w3.org/1999/xlink" width="186.2px" height="10px" preserveAspectRatio="xMinYMid meet" viewBox="1482 182  186.2 8" xmlns="http://www.w3.org/2000/svg">
  <path d="M 1652.8931053071 345.611787776165  A 1.19999999999999 1.19999999999999 0 0 1 1653.7 345.3 L 1658.2 345.3  A 5 5 0 0 0 1663.7 340.3 L 1663.7 191  A 5 5 0 0 0 1658.7 186.5 L 1487 186.5  " stroke-width="1" stroke="#ff9900" fill="none" />
  <path d="M 1654.31504440785 342.3  A 3 3 0 0 0 1651.31504440785 345.3 A 3 3 0 0 0 1654.31504440785 348.3 A 3 3 0 0 0 1657.31504440785 345.3 A 3 3 0 0 0 1654.31504440785 342.3 Z M 1488 180.2  L 1482 186.5  L 1488 192.8  L 1488 180.2  Z " fill-rule="nonzero" fill="#ff9900" stroke="none" />
</svg>