<?xml version="1.0" encoding="utf-8"?>
<svg version="1.1" xmlns:xlink="http://www.w3.org/1999/xlink" width="10px" height="8.5px" preserveAspectRatio="xMinYMid meet" viewBox="2316 336.5  10 6.5" xmlns="http://www.w3.org/2000/svg">
  <path d="M 2321.64188796611 343.513550017572  A 3.5 3.5 0 0 1 2325 341 L 2326 341  A 5 5 0 0 0 2331.5 336 L 2331.5 255  A 5 5 0 0 0 2326.5 250.5 L 2319 250.5  " stroke-width="1" stroke="#ff9900" fill="none" />
  <path d="M 2322.70889976664 338.854086221986  A 3 3 0 0 0 2319.70889976664 341.854086221986 A 3 3 0 0 0 2322.70889976664 344.854086221986 A 3 3 0 0 0 2325.70889976664 341.854086221986 A 3 3 0 0 0 2322.70889976664 338.854086221986 Z M 2320 244.2  L 2314 250.5  L 2320 256.8  L 2320 244.2  Z " fill-rule="nonzero" fill="#ff9900" stroke="none" />
</svg>