<?xml version="1.0" encoding="utf-8"?>
<svg version="1.1" xmlns:xlink="http://www.w3.org/1999/xlink" width="10px" height="63.8px" preserveAspectRatio="xMidYMin meet" viewBox="2487.2 286.2  8 63.8" xmlns="http://www.w3.org/2000/svg">
  <path d="M 2491.38821222384 345.1068946929  A 1.20000000000027 1.20000000000027 0 0 0 2491.7 344.3 L 2491.7 296.2  A 5 5 0 0 0 2486.7 291.7 L 2448 291.7  A 5 5 0 0 1 2443.5 286.7 L 2443.5 276  " stroke-width="1" stroke="#ff9900" fill="none" />
  <path d="M 2491.7 339.684955592154  A 3 3 0 0 0 2488.7 342.684955592154 A 3 3 0 0 0 2491.7 345.684955592154 A 3 3 0 0 0 2494.7 342.684955592154 A 3 3 0 0 0 2491.7 339.684955592154 Z M 2449.8 277  L 2443.5 271  L 2437.2 277  L 2449.8 277  Z " fill-rule="nonzero" fill="#ff9900" stroke="none" />
</svg>