<?xml version="1.0" encoding="utf-8"?>
<svg version="1.1" xmlns:xlink="http://www.w3.org/1999/xlink" width="18px" height="19px" preserveAspectRatio="xMidYMin meet" viewBox="410 104  16 19" xmlns="http://www.w3.org/2000/svg">
  <path d="M 418.25 111.25  L 519.075757575758 111.25  A 5 5 0 0 1 524.575757575758 116.25 L 524.575757575758 392  A 5 5 0 0 0 529.575757575758 397.5 L 609 397.5  " stroke-width="1" stroke="#ff9900" fill="none" />
  <path d="M 420.857300918301 108.25  A 3 3 0 0 0 417.857300918301 111.25 A 3 3 0 0 0 420.857300918301 114.25 A 3 3 0 0 0 423.857300918301 111.25 A 3 3 0 0 0 420.857300918301 108.25 Z M 608 403.8  L 614 397.5  L 608 391.2  L 608 403.8  Z " fill-rule="nonzero" fill="#ff9900" stroke="none" />
</svg>