<?xml version="1.0" encoding="utf-8"?>
<svg version="1.1" xmlns:xlink="http://www.w3.org/1999/xlink" width="12px" height="12px" xmlns="http://www.w3.org/2000/svg">
  <g transform="matrix(1 0 0 1 -150 -294 )">
    <path d="M 156 294  C 159.36 294  162 296.64  162 300  C 162 303.36  159.36 306  156 306  C 152.64 306  150 303.36  150 300  C 150 296.64  152.64 294  156 294  Z " fill-rule="nonzero" fill="#ffffff" stroke="none" />
    <path d="M 156 294.5  C 159.08 294.5  161.5 296.92  161.5 300  C 161.5 303.08  159.08 305.5  156 305.5  C 152.92 305.5  150.5 303.08  150.5 300  C 150.5 296.92  152.92 294.5  156 294.5  Z " stroke-width="1" stroke="#6a708c" fill="none" />
  </g>
</svg>