<?xml version="1.0" encoding="utf-8"?>
<svg version="1.1" xmlns:xlink="http://www.w3.org/1999/xlink" width="10px" height="84.25px" preserveAspectRatio="xMidYMin meet" viewBox="1640 711.846153846154  8 84.25" xmlns="http://www.w3.org/2000/svg">
  <path d="M 1496.5 681  L 1496.5 711.846153846154  A 5 5 0 0 0 1501.5 717.346153846154 L 1639 717.346153846154  A 5 5 0 0 1 1644.5 722.346153846154 L 1644.5 791  " stroke-width="1" stroke="#3399cc" fill="none" />
  <path d="M 1496.5 680  A 3 3 0 0 0 1493.5 683 A 3 3 0 0 0 1496.5 686 A 3 3 0 0 0 1499.5 683 A 3 3 0 0 0 1496.5 680 Z M 1638.2 790  L 1644.5 796  L 1650.8 790  L 1638.2 790  Z " fill-rule="nonzero" fill="#3399cc" stroke="none" />
</svg>