<?xml version="1.0" encoding="utf-8"?>
<svg version="1.1" xmlns:xlink="http://www.w3.org/1999/xlink" width="18px" height="19px" preserveAspectRatio="xMidYMin meet" viewBox="1651 1369  16 19" xmlns="http://www.w3.org/2000/svg">
  <path d="M 1482.5 1334  L 1482.5 1349  A 5 5 0 0 0 1487.5 1354.5 L 1654 1354.5  A 5 5 0 0 1 1659.5 1359.5 L 1659.5 1377  " stroke-width="1" stroke="#ff9900" fill="none" />
  <path d="M 1482.5 1333  A 3 3 0 0 0 1479.5 1336 A 3 3 0 0 0 1482.5 1339 A 3 3 0 0 0 1485.5 1336 A 3 3 0 0 0 1482.5 1333 Z M 1653.2 1376  L 1659.5 1382  L 1665.8 1376  L 1653.2 1376  Z " fill-rule="nonzero" fill="#ff9900" stroke="none" />
</svg>