<?xml version="1.0" encoding="utf-8"?>
<svg version="1.1" xmlns:xlink="http://www.w3.org/1999/xlink" width="64px" height="10px" preserveAspectRatio="xMinYMid meet" viewBox="631 994  64 8" xmlns="http://www.w3.org/2000/svg">
  <path d="M 632 998.5  L 689.5 998.5  A 0.5 0.5 0 0 0 690.5 998 A 0.5 0.5 0 0 1 691 997.5 L 700 997.5  " stroke-width="1" stroke="#ff9900" fill="none" />
  <path d="M 634 995.5  A 3 3 0 0 0 631 998.5 A 3 3 0 0 0 634 1001.5 A 3 3 0 0 0 637 998.5 A 3 3 0 0 0 634 995.5 Z M 699 1003.8  L 705 997.5  L 699 991.2  L 699 1003.8  Z " fill-rule="nonzero" fill="#ff9900" stroke="none" />
</svg>