<?xml version="1.0" encoding="utf-8"?>
<svg version="1.1" xmlns:xlink="http://www.w3.org/1999/xlink" width="10px" height="59.3333333333333px" preserveAspectRatio="xMidYMin meet" viewBox="1415.33333333333 285  8 59.3333333333333" xmlns="http://www.w3.org/2000/svg">
  <path d="M 747.791107308484 340.558929211008  A 1.66666666666669 1.66666666666669 0 0 1 749.166666666667 339.833333333333 L 1414.33333333333 339.833333333333  A 5 5 0 0 0 1419.83333333333 334.833333333333 L 1419.83333333333 290.166666666667  A 0.166666666666629 0.166666666666629 0 0 0 1419.66666666667 290.5 A 0.166666666666515 0.166666666666515 0 0 1 1419.5 290.333333333333 L 1419.5 205  A 5 5 0 0 1 1424.5 200.5 L 1444 200.5  " stroke-width="1" stroke="#3399cc" fill="none" />
  <path d="M 749.048672788675 336.833333333333  A 3 3 0 0 0 746.048672788675 339.833333333333 A 3 3 0 0 0 749.048672788675 342.833333333333 A 3 3 0 0 0 752.048672788675 339.833333333333 A 3 3 0 0 0 749.048672788675 336.833333333333 Z M 1443 206.8  L 1449 200.5  L 1443 194.2  L 1443 206.8  Z " fill-rule="nonzero" fill="#3399cc" stroke="none" />
</svg>