<?xml version="1.0" encoding="utf-8"?>
<svg version="1.1" xmlns:xlink="http://www.w3.org/1999/xlink" width="10px" height="33px" preserveAspectRatio="xMidYMin meet" viewBox="1523 1177.92307692308  8 33" xmlns="http://www.w3.org/2000/svg">
  <path d="M 1350.5 1163  L 1350.5 1177.92307692308  A 5 5 0 0 0 1355.5 1183.42307692308 L 1522 1183.42307692308  A 5 5 0 0 1 1527.5 1188.42307692308 L 1527.5 1206  " stroke-width="1" stroke="#ff9900" fill="none" />
  <path d="M 1350.5 1162  A 3 3 0 0 0 1347.5 1165 A 3 3 0 0 0 1350.5 1168 A 3 3 0 0 0 1353.5 1165 A 3 3 0 0 0 1350.5 1162 Z M 1521.2 1205  L 1527.5 1211  L 1533.8 1205  L 1521.2 1205  Z " fill-rule="nonzero" fill="#ff9900" stroke="none" />
</svg>