<?xml version="1.0" encoding="utf-8"?>
<svg version="1.1" xmlns:xlink="http://www.w3.org/1999/xlink" width="14px" height="14px" xmlns="http://www.w3.org/2000/svg">
  <g transform="matrix(1 0 0 1 -1252 -248 )">
    <path d="M 13.4440104166667 4.28385416666667  C 13.8146701388889 5.14670138888889  14 6.05208333333333  14 7  C 14 7.94791666666667  13.8146701388889 8.85329861111111  13.4440104166667 9.71614583333333  C 13.0733506944444 10.5789930555556  12.5750868055556 11.3233506944444  11.94921875 11.94921875  C 11.3233506944444 12.5750868055556  10.5789930555556 13.0733506944444  9.71614583333333 13.4440104166667  C 8.85329861111111 13.8146701388889  7.94791666666667 14  7 14  C 5.95486111111111 14  4.96137152777778 13.7797309027778  4.01953125 13.3391927083333  C 3.07769097222222 12.8986545138889  2.27560763888889 12.27734375  1.61328125 11.4752604166667  C 1.57074652777778 11.4144965277778  1.55099826388889 11.3461371527778  1.55403645833333 11.2701822916667  C 1.55707465277778 11.1942274305556  1.58289930555556 11.1319444444444  1.63151041666667 11.0833333333333  L 2.88020833333333 9.82552083333333  C 2.94097222222222 9.77083333333333  3.01692708333333 9.74348958333333  3.10807291666667 9.74348958333333  C 3.20529513888889 9.75564236111111  3.27517361111111 9.79210069444444  3.31770833333333 9.85286458333333  C 3.76128472222222 10.4301215277778  4.30512152777778 10.8767361111111  4.94921875 11.1927083333333  C 5.59331597222222 11.5086805555556  6.27690972222222 11.6666666666667  7 11.6666666666667  C 7.63194444444445 11.6666666666667  8.23502604166667 11.5436197916667  8.80924479166667 11.2975260416667  C 9.38346354166667 11.0514322916667  9.88020833333333 10.71875  10.2994791666667 10.2994791666667  C 10.71875 9.88020833333333  11.0514322916667 9.38346354166667  11.2975260416667 8.80924479166667  C 11.5436197916667 8.23502604166667  11.6666666666667 7.63194444444444  11.6666666666667 7  C 11.6666666666667 6.36805555555555  11.5436197916667 5.76497395833333  11.2975260416667 5.19075520833333  C 11.0514322916667 4.61653645833333  10.71875 4.11979166666667  10.2994791666667 3.70052083333333  C 9.88020833333333 3.28125  9.38346354166667 2.94856770833333  8.80924479166667 2.70247395833333  C 8.23502604166667 2.45638020833333  7.63194444444445 2.33333333333333  7 2.33333333333333  C 6.40451388888889 2.33333333333333  5.83333333333333 2.44118923611111  5.28645833333333 2.65690104166667  C 4.73958333333333 2.87261284722222  4.25347222222222 3.18098958333333  3.828125 3.58203125  L 5.07682291666667 4.83984375  C 5.26519097222222 5.02213541666667  5.30772569444444 5.23177083333333  5.20442708333333 5.46875  C 5.10112847222222 5.71180555555556  4.921875 5.83333333333333  4.66666666666667 5.83333333333333  L 0.583333333333333 5.83333333333333  C 0.425347222222222 5.83333333333333  0.288628472222222 5.77560763888889  0.173177083333333 5.66015625  C 0.0577256944444444 5.54470486111111  0 5.40798611111111  0 5.25  L 0 1.16666666666667  C 0 0.911458333333333  0.121527777777778 0.732204861111111  0.364583333333333 0.62890625  C 0.6015625 0.525607638888888  0.811197916666667 0.568142361111111  0.993489583333333 0.756510416666667  L 2.17838541666667 1.93229166666667  C 2.82855902777778 1.31857638888889  3.57139756944444 0.843098958333333  4.40690104166667 0.505859375  C 5.24240451388889 0.168619791666667  6.10677083333333 0  7 0  C 7.94791666666667 0  8.85329861111111 0.185329861111111  9.71614583333333 0.555989583333333  C 10.5789930555556 0.926649305555555  11.3233506944444 1.42491319444444  11.94921875 2.05078125  C 12.5750868055556 2.67664930555555  13.0733506944444 3.42100694444444  13.4440104166667 4.28385416666667  Z " fill-rule="nonzero" fill="#333333" stroke="none" transform="matrix(1 0 0 1 1252 248 )" />
  </g>
</svg>