<?xml version="1.0" encoding="utf-8"?>
<svg version="1.1" xmlns:xlink="http://www.w3.org/1999/xlink" width="10px" height="54.2px" preserveAspectRatio="xMidYMin meet" viewBox="473 758  8 54.2" xmlns="http://www.w3.org/2000/svg">
  <path d="M 477.5 759  L 477.5 802.2  A 5 5 0 0 0 482.5 807.7 L 593 807.7  A 5 5 0 0 1 598.5 812.7 L 598.5 830  " stroke-width="1" stroke="#ff9900" fill="none" />
  <path d="M 477.5 758  A 3 3 0 0 0 474.5 761 A 3 3 0 0 0 477.5 764 A 3 3 0 0 0 480.5 761 A 3 3 0 0 0 477.5 758 Z M 592.2 829  L 598.5 835  L 604.8 829  L 592.2 829  Z " fill-rule="nonzero" fill="#ff9900" stroke="none" />
</svg>