<?xml version="1.0" encoding="utf-8"?>
<svg version="1.1" xmlns:xlink="http://www.w3.org/1999/xlink" width="18px" height="18px" preserveAspectRatio="xMinYMid meet" viewBox="1171 815  18 16" xmlns="http://www.w3.org/2000/svg">
  <defs>
    <mask fill="white" id="clip144">
      <path d="M 1189 910  L 1309 910  L 1309 954  L 1189 954  Z M 1171 811  L 1439 811  L 1439 954  L 1171 954  Z " fill-rule="evenodd" />
    </mask>
  </defs>
  <path d="M 1180.5 821  L 1180.5 927  A 5 5 0 0 0 1185.5 932.5 L 1425 932.5  " stroke-width="1" stroke="#3399cc" fill="none" mask="url(#clip144)" />
  <path d="M 1180.5 820  A 3 3 0 0 0 1177.5 823 A 3 3 0 0 0 1180.5 826 A 3 3 0 0 0 1183.5 823 A 3 3 0 0 0 1180.5 820 Z M 1424 938.8  L 1430 932.5  L 1424 926.2  L 1424 938.8  Z " fill-rule="nonzero" fill="#3399cc" stroke="none" mask="url(#clip144)" />
</svg>