<?xml version="1.0" encoding="utf-8"?>
<svg version="1.1" xmlns:xlink="http://www.w3.org/1999/xlink" width="44px" height="44px" xmlns="http://www.w3.org/2000/svg">
  <g transform="matrix(1 0 0 1 -82 -160 )">
    <path d="M 11.9084821428571 24.2834821428571  L 5.30357142857143 28.703125  L 20.109375 38.5736607142857  L 20.109375 29.7589285714286  L 11.9084821428571 24.2834821428571  Z M 3.78125 18.8325892857143  L 3.78125 25.1674107142857  L 8.52008928571428 22  L 3.78125 18.8325892857143  Z M 23.890625 29.7589285714286  L 23.890625 38.5736607142857  L 38.6964285714286 28.703125  L 32.0915178571429 24.2834821428571  L 23.890625 29.7589285714286  Z M 15.3214285714286 22  L 22 26.46875  L 28.6785714285714 22  L 22 17.53125  L 15.3214285714286 22  Z M 5.30357142857143 15.296875  L 11.9084821428571 19.7165178571429  L 20.109375 14.2410714285714  L 20.109375 5.42633928571429  L 5.30357142857143 15.296875  Z M 40.21875 18.8325892857143  L 35.4799107142857 22  L 40.21875 25.1674107142857  L 40.21875 18.8325892857143  Z M 23.890625 14.2410714285714  L 32.0915178571429 19.7165178571429  L 38.6964285714286 15.296875  L 23.890625 5.42633928571429  L 23.890625 14.2410714285714  Z M 43.1651785714286 13.7254464285714  C 43.7217261904762 14.1019345238095  44 14.625744047619  44 15.296875  L 44 28.703125  C 44 29.374255952381  43.7217261904762 29.8980654761905  43.1651785714286 30.2745535714286  L 23.0558035714286 43.6808035714286  C 22.7120535714286 43.8936011904762  22.360119047619 44  22 44  C 21.639880952381 44  21.2879464285714 43.8936011904762  20.9441964285714 43.6808035714286  L 0.834821428571428 30.2745535714286  C 0.278273809523809 29.8980654761905  0 29.374255952381  0 28.703125  L 0 15.296875  C 0 14.625744047619  0.278273809523809 14.1019345238095  0.834821428571428 13.7254464285714  L 20.9441964285714 0.319196428571429  C 21.2879464285714 0.106398809523815  21.639880952381 0  22 0  C 22.360119047619 0  22.7120535714286 0.106398809523815  23.0558035714286 0.319196428571429  L 43.1651785714286 13.7254464285714  Z " fill-rule="nonzero" fill="#797979" stroke="none" transform="matrix(1 0 0 1 82 160 )" />
  </g>
</svg>